<?xml version="1.0" encoding="UTF-8"?>
<!DOCTYPE svg PUBLIC "-//W3C//DTD SVG 1.1//EN" "http://www.w3.org/Graphics/SVG/1.1/DTD/svg11.dtd">
<!-- Creator: CorelDRAW 2017 -->
<svg xmlns="http://www.w3.org/2000/svg" xml:space="preserve" width="174.055mm" height="98.488mm" version="1.1" style="shape-rendering:geometricPrecision; text-rendering:geometricPrecision; image-rendering:optimizeQuality; fill-rule:evenodd; clip-rule:evenodd"
viewBox="0 0 17406 9849"
 xmlns:xlink="http://www.w3.org/1999/xlink">
 <defs>
  <style type="text/css">
   <![CDATA[
    .fil0 {fill:#ffa7c4;fill-rule:nonzero}
   ]]>
  </style>
 </defs>
 <g id="Layer_x0020_1">
  <metadata id="CorelCorpID_0Corel-Layer"/>
  <path class="fil0" d="M2106 6103c6,2 13,4 19,5 3,8 2,17 -2,25 -6,10 -3,-4 -6,10 -9,32 -4,35 4,65 8,-4 16,-9 24,-13 -6,12 -11,23 -17,35 -8,1 -15,2 -23,2 -3,-8 -7,-15 -10,-23 -5,6 -10,35 -8,42 2,6 5,12 7,18 5,-1 10,-2 14,-2 -5,14 -10,28 -15,42 -2,27 -4,55 -6,82 7,-8 15,-16 22,-24 0,0 -2,28 -6,39 -5,14 -9,90 -8,107 1,6 1,12 2,18 -8,-11 -1,37 1,54 13,71 44,208 47,273 -2,28 -8,81 -17,106 -8,24 -20,130 -19,156 0,7 1,15 1,22 -10,216 -20,437 -37,652 -3,28 -6,56 -6,85 1,20 2,40 3,61 3,13 7,27 10,40 -3,13 -6,26 -9,38 -8,-6 -16,-11 -24,-17 -7,3 -4,26 -3,32 2,6 4,12 7,18 -5,0 -9,-1 -14,-1 -16,10 -23,-2 -17,27 6,30 11,17 34,-4 7,9 13,18 20,27 -1,18 -2,35 -2,53 5,24 1,72 -2,96 -2,23 -5,47 -7,70 2,19 4,38 5,57 -3,21 -7,42 -10,63 -7,13 -17,44 -17,44 8,10 14,23 13,37 -2,20 4,40 2,61 -2,22 9,30 12,51 2,16 3,36 8,50 5,12 39,25 51,27 5,1 9,1 14,2 75,11 319,46 372,75 16,16 22,25 35,39 12,12 107,56 127,65 30,13 37,33 73,34 27,2 53,15 73,34 13,-12 14,2 13,13 -1,11 2,68 11,30 4,-21 5,-43 2,-64 0,0 7,-38 15,-37 8,1 3,3 9,1 6,-3 5,7 7,-3 1,-10 2,-18 -6,-26 -10,-11 -7,-18 3,-28 4,-4 8,-9 13,-13 8,-1 8,-8 5,-14 -6,-10 -17,-30 -17,-30 0,0 9,-36 6,-50 -4,-14 5,-4 14,-16 10,-13 5,-15 3,-29 -2,-13 -2,-28 -7,-40 -4,-16 -3,-54 -3,-73 3,-40 8,-37 0,-79 -3,-17 -16,-34 2,-47 13,-10 17,-26 16,-41 2,-21 5,-43 7,-64 2,-22 -24,12 -28,16 2,-17 3,-42 12,-57 8,-11 5,-50 5,-50 2,-13 4,-26 7,-39 -5,-11 -9,-22 -11,-34 -2,-15 -4,-44 -4,-44 -2,-105 -13,-280 -5,-377 1,-4 2,-7 4,-11 2,-43 5,-86 7,-130 0,-34 1,-68 1,-102 2,-64 6,-128 9,-191 4,6 8,13 12,19 -2,-39 -7,-86 -3,-124 2,-21 6,-52 4,-72 -1,-27 10,-51 4,-80 -9,-45 -11,-181 -9,-230 11,-229 16,-462 22,-691 5,11 10,23 15,34 0,0 -1,-27 0,-40 1,-16 6,-47 6,-47 0,-10 0,-19 -1,-29 0,-2 3,-42 -1,-33 -5,13 -11,39 -11,39 0,0 -2,-58 0,-87 3,-45 -6,-93 -3,-138 -2,-109 -16,-170 -10,-317 2,-51 15,-341 0,-388 0,-25 0,-51 1,-76 4,-19 7,-38 11,-58 5,-30 10,-60 15,-89 -4,-10 -9,-20 -13,-30 0,0 -1,-34 0,-51 1,-15 4,-32 2,-47 -6,-49 -10,-103 -14,-152 4,-7 8,-14 12,-21 -2,-35 -5,-73 -5,-108 -1,-45 -8,-102 -12,-148 -7,-99 -5,-216 -17,-312 -2,-31 11,-72 6,-107 -8,-32 -6,-39 -7,-71 -12,-2 -29,-6 -33,-18 -8,-45 -10,-96 -23,-139 -8,-35 -8,-82 -18,-114 -11,-36 -25,-114 -29,-152 -2,-93 22,-172 -1,-271 -3,-10 -19,-72 3,-28 0,-9 0,-19 0,-28 5,-23 10,-46 14,-70 8,-12 15,-24 23,-35 0,-6 2,-35 -9,-28 -10,10 -13,28 -14,42 -270,15 -538,82 -782,198 5,20 20,77 -1,90 -23,7 -23,36 -23,55 0,17 5,26 5,48 0,28 1,70 -7,97 -3,18 23,91 26,125 9,87 30,151 30,245 -1,53 1,109 7,161 -11,-19 -21,-38 -32,-57 -1,39 1,80 8,119 4,22 10,55 9,78 -6,11 -12,23 -18,34 -2,79 -4,210 19,283 10,25 19,40 26,65 5,23 3,49 -8,70 1,33 3,67 2,99 0,22 3,43 9,64 4,50 7,100 11,150 0,0 -7,43 -8,63 -5,107 -10,214 -16,320 -1,43 4,87 16,129 -1,12 -1,24 -2,35 5,53 9,106 14,158 4,22 10,68 -5,85 -20,15 -15,20 -20,49 -6,29 -11,92 -11,92 11,34 22,68 33,102 6,24 1,82 -1,108z"/>
  <path class="fil0" d="M3191 7586c7,-1 13,-2 20,-2 5,5 6,11 5,17 -3,8 -4,-2 -3,9 0,25 6,25 20,42 6,-5 13,-11 19,-16 -2,9 -5,19 -7,28 -7,3 -14,6 -21,9 -5,-4 -10,-8 -15,-12 -4,5 -1,26 3,31 4,3 8,7 12,10 4,-2 9,-4 13,-6 -1,11 -2,21 -3,32 5,19 10,37 16,56 5,-7 10,-15 15,-22 0,0 5,19 5,28 -1,10 15,63 20,72 2,4 4,7 6,11 -11,-5 8,24 15,35 17,23 111,143 115,158 5,16 13,56 11,72 -1,15 16,87 23,101 2,4 5,8 7,13 43,123 90,249 130,373 4,15 8,30 15,44 6,9 11,19 17,28 6,5 13,11 19,16 0,7 0,14 0,21 -9,0 -18,0 -27,0 -5,4 2,13 5,16 4,2 7,4 11,6 -5,1 -9,3 -14,4 -10,8 -22,6 -10,18 14,12 17,1 31,-13 8,2 17,4 25,6 3,8 7,16 10,24 10,8 17,30 21,41 3,10 6,20 9,31 6,7 12,14 18,21 2,9 3,18 5,27 -3,6 -6,21 -6,21 0,0 18,2 20,9 2,7 12,11 15,20 2,8 15,7 22,13 6,5 11,11 18,13 8,2 45,-5 54,-8 5,-1 9,-3 14,-4 101,-28 270,-81 367,-95 14,-1 28,0 41,0 38,-3 94,-15 132,-22 27,-5 48,-5 76,-14 24,-7 51,-12 76,-14 0,0 12,-9 14,-1 2,8 16,14 16,4 0,-7 -5,-13 -11,-17 0,0 0,-12 7,-15 4,-1 5,-1 8,-2 5,-2 6,0 6,-3 -2,-5 -5,-5 -10,-5 -11,0 -11,-2 -3,-9 3,-3 6,-5 9,-8 -1,0 11,-4 2,-6 -7,-1 -22,-4 -22,-4 0,0 3,-13 -5,-17 -6,-3 2,-2 9,-9 7,-7 2,-7 -3,-10 -5,-4 -8,-9 -15,-11 -8,-3 -18,-24 -18,-24 -7,-17 1,-14 -17,-28 -8,-6 -22,-8 -8,-18 7,-5 12,-13 6,-21 -3,-9 -5,-18 -8,-28 -3,-9 -20,13 -22,15 -3,-9 -7,-18 -1,-27 3,-5 -7,-23 -7,-23 -1,-6 -2,-13 -3,-19 0,0 -14,-7 -18,-11 -5,-6 -14,-18 -14,-18 9,15 -97,-168 -95,-179 0,-2 0,-5 1,-7 -9,-23 -17,-47 -26,-70 -8,-18 -17,-37 -25,-55 -15,-36 -27,-73 -40,-110 6,2 11,5 17,7 -11,-20 -29,-49 -35,-70 -3,-12 -9,-34 -15,-43 -7,-11 -4,-37 -17,-49 -12,-11 -63,-118 -68,-137 -49,-148 -103,-297 -154,-445 8,6 15,11 23,17 0,0 -7,-17 -10,-26 -3,-10 -6,-32 -6,-32 -3,-6 -5,-12 -8,-18 1,3 -8,-29 -9,-21 -1,9 -1,28 -1,28 0,0 -16,-37 -21,-56 -8,-29 -28,-59 -36,-88 -28,-69 -46,-73 -83,-199 -8,-30 -62,-219 -84,-241 -5,-15 -10,-31 -15,-46 0,-12 -1,-25 -1,-37 -1,-19 -2,-38 -3,-57 -6,-5 -12,-9 -18,-14 0,0 -7,-19 -10,-29 -2,-8 -2,-20 -7,-27 -14,-24 -29,-56 -41,-82 3,-5 6,-10 8,-15 -7,-17 -17,-40 -23,-57 -7,-20 -25,-54 -35,-74 -18,-40 -40,-112 -59,-146 -4,-4 0,-40 -7,-48 -12,-13 -9,-13 -15,-28 -8,1 -29,4 -34,-1 -11,-15 -21,-38 -36,-50 -9,-7 -19,-33 -28,-38 -8,-5 -35,-37 -39,-45 -7,-14 12,-56 -12,-70 -16,-10 -10,-10 3,-6 0,-2 0,-4 0,-5 4,-4 9,-9 13,-12 7,-2 15,-4 22,-5 2,-4 -7,-3 -9,-3 -4,0 -12,2 -14,5 -278,16 -504,38 -773,124 8,10 23,31 5,39 -16,4 -21,11 -19,27 2,9 6,6 9,20 2,12 6,32 1,44 -1,10 28,32 38,52 19,41 43,58 56,109 6,25 15,56 28,79 -13,-7 -26,-15 -39,-22 5,21 13,42 24,60 7,10 18,27 21,39 -4,8 -8,15 -12,23 11,47 32,118 65,153 14,12 25,18 36,31 10,13 11,28 5,43 0,0 15,39 20,59 4,14 12,26 21,37 13,30 27,60 40,89 0,0 2,29 5,42 18,70 36,140 55,210 9,30 24,56 45,80 2,8 4,16 6,24 17,33 34,67 50,100 9,14 26,42 16,58 -15,15 -10,14 -7,39 2,20 12,65 12,65 19,19 38,38 56,58 11,12 21,55 26,72z"/>
  <path class="fil0" d="M5761 6561c-6,-1 -13,-3 -19,-4 -3,-7 -3,-14 1,-20 6,-8 3,3 6,-8 8,-26 3,-29 -5,-52 -8,3 -16,7 -23,10 5,-9 11,-18 16,-28 8,-1 15,-1 23,-2 4,6 7,12 11,18 5,-4 9,-28 8,-34 -3,-5 -5,-10 -8,-15 -5,1 -9,1 -14,2 5,-11 9,-22 14,-34 1,-22 3,-44 4,-66 -7,6 -14,13 -21,19 0,0 1,-23 5,-32 4,-10 7,-74 5,-86 -1,-5 -1,-10 -2,-15 9,9 1,-29 -3,-44 -13,-53 -51,-175 -55,-221 1,-22 6,-67 13,-87 7,-18 15,-108 12,-127 -1,-6 -1,-12 -2,-18 1,-177 -1,-356 2,-533 1,-23 2,-46 0,-70 -2,-16 -4,-33 -7,-49 -4,-11 -9,-22 -13,-33 2,-11 4,-21 7,-32 8,4 17,8 25,13 6,-3 3,-21 1,-26 -3,-5 -5,-10 -8,-15 5,0 9,0 14,1 15,-8 23,1 15,-23 -9,-25 -13,-13 -34,5 -7,-7 -15,-14 -22,-21 -1,-14 -1,-29 -2,-43 -7,-19 -6,-58 -6,-78 1,-19 1,-38 2,-57 -3,-15 -7,-31 -10,-46 2,-17 3,-35 5,-52 6,-11 13,-37 13,-37 -8,-8 -16,-17 -16,-29 0,-16 -8,-31 -7,-49 0,-19 -12,-23 -16,-40 -3,-12 -7,-29 -13,-40 -6,-10 -42,-18 -53,-18 -5,0 -9,0 -14,0 -77,-4 -320,-14 -378,-34 -17,-11 -25,-18 -39,-29 -15,-10 -111,-36 -133,-42 -31,-8 -41,-23 -76,-21 -26,0 -53,-8 -76,-21 -10,9 -14,2 -14,-9 0,-12 -9,-52 -14,-22 -2,17 0,34 5,50 0,0 -4,30 -12,30 -7,0 -4,-2 -9,0 -6,3 -6,-5 -6,3 0,9 0,14 8,20 11,7 9,14 0,22 -4,4 -7,7 -11,11 -7,2 -8,6 -3,11 7,7 20,22 20,22 -3,12 -5,28 -1,39 5,11 -4,4 -12,14 -9,11 -4,12 -1,23 3,10 5,22 11,31 5,12 8,42 10,56 1,31 -5,30 7,62 5,13 19,26 2,37 -11,8 -15,20 -13,33 -1,17 -1,34 -2,51 -1,17 23,-11 26,-14 0,14 1,34 -8,45 -6,8 -1,40 -1,40 -1,10 -2,21 -4,31 6,8 11,16 13,26 3,11 7,34 7,34 9,73 33,233 31,297 -1,3 -2,6 -3,9 0,34 1,69 1,103 2,27 3,54 5,81 2,51 1,101 1,152 -4,-5 -9,-10 -13,-15 4,30 11,69 9,98 -1,16 -3,42 0,57 4,17 -9,44 0,63 8,18 20,157 18,182 -3,180 -2,362 -4,542 -5,-9 -10,-18 -15,-27 0,0 1,21 1,31 -1,12 -5,37 -5,37 0,7 1,15 1,22 0,-4 -2,34 1,26 4,-10 11,-30 11,-30 0,0 3,45 1,67 -2,34 7,73 5,107 3,85 19,108 12,244 -2,37 -14,261 -1,295 0,19 -1,38 -1,57 -4,14 -8,28 -12,43 -5,22 -10,44 -16,66 4,8 8,15 12,23 0,0 1,25 0,38 -1,11 -4,24 -2,34 6,35 9,77 12,113 -4,5 -8,10 -13,15 1,25 4,55 3,79 0,31 6,76 9,108 4,69 1,159 10,224 3,10 -14,58 -9,75 7,24 5,26 5,50 9,2 29,5 33,15 6,31 8,69 19,98 7,20 6,64 15,79 8,16 23,87 23,105 -2,61 -28,114 -10,181 4,11 15,47 -4,18 0,6 -1,12 -1,19 -6,15 -11,30 -17,44 -8,7 -16,14 -24,21 0,0 -4,24 7,18 9,-5 14,-16 16,-26 264,9 532,-15 788,-79 -5,-15 -16,-53 4,-60 21,-3 24,-18 25,-36 0,-12 -4,-15 -3,-33 1,-19 2,-49 10,-66 4,-13 -19,-61 -22,-88 -7,-64 -25,-104 -22,-174 2,-39 2,-78 -3,-116 10,14 20,29 31,43 2,-28 1,-59 -5,-86 -4,-16 -9,-41 -8,-57 6,-8 13,-16 19,-24 4,-60 8,-155 -13,-210 -10,-19 -18,-30 -25,-50 -5,-18 -2,-37 9,-52 0,0 -2,-50 0,-75 1,-16 -3,-34 -8,-49 -3,-38 -6,-76 -9,-114 0,0 8,-33 9,-48 6,-82 12,-165 17,-247 1,-35 -4,-69 -16,-101 1,-9 1,-18 2,-28 -5,-42 -10,-83 -14,-125 -4,-18 -11,-54 4,-67 20,-11 14,-13 20,-38 5,-23 10,-73 10,-73 -11,-27 -23,-54 -34,-82 -6,-17 -2,-66 -1,-86z"/>
  <path class="fil0" d="M2315 3794c-2,-6 -3,-13 -5,-19 1,-4 3,-5 6,-2 3,3 0,3 4,4 11,4 10,-5 13,-13 -3,-7 -7,-14 -10,-20 4,4 9,7 13,11 3,7 5,14 8,21 -1,4 -1,9 -2,13 2,4 11,5 12,2 1,-3 1,-6 2,-10 -2,-4 -3,-9 -5,-13 5,3 9,5 14,8 7,-2 13,-4 20,-7 -4,-6 -8,-11 -13,-17 3,-1 7,-2 11,0 4,2 23,-5 26,-9 1,-1 2,-3 3,-4 1,11 11,-9 11,-10 5,-10 37,-86 40,-88 6,-2 22,-5 28,-2 7,3 35,-5 39,-10 1,-2 3,-3 4,-5 48,-29 96,-64 144,-91 7,-4 13,-6 19,-12 3,-5 7,-10 10,-15 1,-6 2,-12 3,-17 4,0 8,0 12,0 3,8 6,16 8,25 3,5 7,-1 8,-4 0,-3 0,-7 0,-10 2,4 4,8 7,12 7,9 10,20 13,9 3,-13 -7,-19 -17,-29 -2,-8 -3,-15 -5,-23 4,-3 7,-6 11,-9 2,-9 11,-16 19,-20 6,-3 11,-6 17,-9 3,-6 5,-12 8,-18 6,-2 11,-4 17,-6 4,2 17,4 17,4 0,0 -4,-17 0,-20 4,-3 4,-12 10,-16 5,-3 1,-15 3,-22 2,-6 5,-12 5,-19 0,-8 -18,-41 -22,-49 -2,-4 -5,-8 -7,-12 -57,-99 -139,-231 -185,-330 -5,-13 -8,-26 -13,-39 -15,-38 -39,-84 -58,-121 -12,-24 -20,-45 -34,-69 -13,-20 -35,-68 -35,-68 0,0 -11,-10 -5,-13 5,-3 6,-17 -2,-15 -6,2 -8,6 -10,12 -5,1 -10,0 -13,-5 -2,-3 -2,-5 -4,-7 -2,-3 -2,-6 -4,-5 -4,2 -2,7 0,10 3,9 2,11 -5,3 -3,-3 -6,-5 -8,-8 1,1 -7,-10 -4,-1 2,7 5,21 5,21 0,0 -10,-1 -9,5 0,6 -4,-3 -9,-8 -7,-6 -5,-1 -5,3 -1,6 -2,8 -1,14 1,5 -8,17 -8,17 -8,7 -9,-2 -10,15 0,7 4,20 -7,7 -2,-2 -10,-13 -13,-6 -4,2 -8,4 -11,6 -4,2 14,19 16,21 -5,3 -7,5 -13,0 -4,-3 -7,1 -9,5 -3,1 -5,1 -8,2 0,0 2,11 1,15 -1,4 -3,12 -3,12 -6,11 -38,66 -45,70 -1,0 -2,-1 -3,-1 -6,5 -13,10 -19,15 -4,5 -9,10 -13,16 -8,8 -18,15 -28,22 -1,-5 -2,-9 -3,-14 -3,5 -10,20 -14,22 -3,1 -9,4 -11,7 -1,4 -11,-1 -12,8 0,7 -21,39 -26,41 -34,20 -68,45 -102,66 0,-6 0,-12 0,-18 0,0 -4,4 -6,4 -2,1 -9,0 -8,0 -1,1 -3,3 -4,4 0,0 -7,2 -4,5 3,2 9,6 9,6 0,0 -8,8 -13,9 -5,2 -14,16 -20,18 -5,4 13,21 -46,41 -12,4 -59,19 -64,34 -4,2 -9,4 -13,6 -4,-2 -8,-4 -12,-6 -6,-3 -12,-5 -18,-8 -1,5 -2,10 -3,15 0,0 -6,4 -9,4 -3,0 -7,-1 -9,2 -6,9 -26,25 -25,25 -2,-4 -4,-7 -6,-11 1,-1 -15,11 -19,12 -3,0 -23,18 -27,21 -9,7 -58,29 -61,33 -2,3 -19,-7 -23,-1 -6,9 -5,7 -14,10 0,0 2,31 -1,34 -9,10 -21,16 -29,28 -4,7 -21,15 -24,22 -3,7 -26,30 -33,33 -10,4 -47,-17 -66,7 -12,14 -13,12 -7,-3 -2,0 -5,0 -7,0 -6,-4 -12,-9 -18,-13 -3,-7 -7,-15 -10,-22 -7,-1 -8,3 -7,9 2,6 5,12 11,14 20,268 44,512 98,777 0,0 23,-24 26,-2 2,12 4,22 18,21 5,0 4,-6 14,-6 9,-1 21,-2 29,3 7,3 19,-23 34,-31 21,-9 38,-38 66,-41 15,-2 31,-7 43,-16 -4,12 -8,23 -12,35 12,-2 23,-6 32,-15 5,-5 13,-13 20,-14 4,5 8,11 12,16 27,-4 59,-13 73,-39 5,-11 7,-20 13,-30 8,-13 20,2 20,2 0,0 17,-8 25,-10 7,-2 11,-8 15,-14 12,-8 24,-16 36,-24 5,2 12,3 18,2 28,-5 55,-11 83,-18 13,-4 22,-17 28,-30 3,-1 6,-1 9,-2 11,-11 23,-21 34,-32 0,0 14,-21 21,-6 7,14 4,11 17,13 8,1 17,1 25,-1 5,-15 9,-30 14,-45 3,-8 18,-12 25,-14z"/>
  <path class="fil0" d="M6966 5337c-7,-2 -13,-4 -20,-6 -3,-12 -4,-24 0,-36 6,-15 3,5 6,-15 6,-44 1,-52 -8,-93 -8,7 -15,14 -23,21 5,-17 9,-34 14,-51 8,-2 15,-4 23,-6 4,10 8,21 12,31 5,-9 8,-51 6,-62 -3,-9 -6,-17 -8,-26 -5,2 -9,3 -14,5 4,-20 8,-41 12,-61 0,-39 0,-79 0,-118 -7,12 -14,24 -20,36 0,0 0,-39 3,-56 5,-34 4,-116 1,-152 -1,-8 -2,-17 -3,-25 9,14 -1,-52 -5,-76 -19,-107 -58,-268 -66,-370 1,-43 2,-102 9,-144 7,-48 10,-156 7,-204 -1,-9 -2,-19 -3,-28 -6,-251 -15,-505 -18,-756 0,-29 1,-57 -2,-85 -3,-19 -5,-39 -8,-58 -5,-12 -9,-25 -14,-37 2,-12 4,-24 6,-36 9,4 17,9 26,13 6,-4 2,-23 0,-29 -3,-5 -6,-11 -8,-16 5,0 9,0 14,0 15,-9 23,0 14,-25 -9,-26 -13,-13 -34,6 -7,-7 -15,-14 -22,-22 -1,-15 -2,-30 -3,-45 -7,-17 -8,-59 -8,-77 0,-18 0,-35 0,-53 -4,-13 -7,-27 -11,-40 1,-14 2,-28 3,-43 5,-8 12,-29 12,-29 -7,-5 -16,-12 -17,-21 0,-11 -8,-22 -8,-34 0,-13 -12,-15 -17,-26 -4,-8 -7,-18 -14,-24 -6,-6 -44,-10 -54,-10 -5,0 -9,0 -14,0 -97,-2 -293,0 -379,-16 -14,-5 -26,-10 -40,-15 -34,-9 -97,-15 -133,-19 -28,-3 -47,-10 -76,-9 -26,0 -51,-3 -76,-8 -5,2 -13,4 -14,-3 0,-8 -12,-17 -14,-8 -2,7 1,14 5,19 0,0 -3,13 -11,13 -4,0 -5,-1 -9,0 -6,1 -6,-2 -6,1 0,6 3,8 9,9 11,3 10,7 0,11 -4,2 -7,4 -11,6 0,0 -12,1 -3,6 7,4 20,13 20,13 -3,7 -5,17 0,24 5,7 -2,2 -12,9 -8,7 -4,8 0,15 4,7 5,15 12,21 7,8 11,42 11,42 2,26 -5,22 8,49 5,11 19,22 3,31 -11,7 -15,18 -12,30 0,16 0,32 0,48 0,16 22,-10 26,-14 0,13 2,32 -6,44 -6,9 0,40 0,40 -1,11 -2,22 -3,32 6,8 11,18 14,27 3,12 8,37 8,37 13,99 40,269 40,363 -1,4 -2,8 -3,12 2,47 3,94 5,142 3,38 5,77 8,115 4,76 5,152 7,228 -5,-7 -9,-15 -14,-22 5,49 13,104 13,153 0,28 -2,64 2,91 3,34 -6,66 3,103 15,69 25,229 27,303 6,321 16,644 25,965 -6,-16 -11,-31 -17,-47 0,0 2,38 2,56 0,22 -1,45 -3,68 1,14 2,27 2,41 0,2 -1,60 3,47 4,-19 9,-56 9,-56 3,41 5,82 5,123 0,65 11,131 11,196 8,152 26,264 28,444 1,75 1,455 21,526 1,33 2,66 4,99 -3,25 -5,50 -8,75 -3,38 -7,76 -10,114 5,12 10,24 14,37 0,0 3,42 3,63 0,18 -2,39 0,57 9,59 15,121 22,180 -4,9 -8,17 -11,26 4,40 8,83 10,122 3,49 13,110 19,160 10,94 15,215 32,304 4,26 -7,64 -1,93 9,27 8,30 10,58 10,1 29,3 34,13 9,32 15,74 29,103 9,18 14,62 24,75 8,11 33,73 36,87 5,40 -14,87 14,121 11,11 19,21 -2,11 1,3 1,7 2,10 -3,9 -6,19 -9,29 -6,7 -13,13 -18,21 0,0 4,21 12,12 5,-6 8,-15 8,-24 273,-77 485,-114 763,-165 -10,-4 -19,-16 -2,-20 14,-2 22,-5 21,-20 -1,-8 -5,-4 -7,-18 -1,-13 -3,-33 3,-45 2,-10 -25,-44 -32,-69 -16,-67 -36,-95 -41,-173 -2,-45 -6,-93 -15,-137 11,16 23,33 35,49 -1,-36 -5,-72 -14,-107 -6,-22 -12,-51 -13,-74 6,-12 11,-23 16,-35 -2,-85 -7,-222 -33,-300 -11,-28 -21,-45 -29,-73 -7,-28 -5,-56 5,-83 -3,-39 -6,-80 -7,-119 -1,-27 -5,-53 -12,-79 -6,-63 -12,-126 -18,-189 0,0 5,-56 5,-83 -1,-144 -1,-288 -2,-432 -1,-60 -9,-120 -23,-179 0,-17 0,-33 0,-50 -8,-74 -15,-149 -23,-223 -5,-31 -14,-96 0,-122 20,-24 14,-37 17,-72 4,-44 6,-134 6,-134 -13,-48 -26,-96 -39,-144 -8,-41 -6,-111 -6,-155z"/>
  <path class="fil0" d="M6970 5825l20 -2c6,8 10,18 10,28 -1,13 -4,-2 -1,14 7,38 13,40 34,69l16 -24 1 44 -20 12 -20 -20c-2,8 7,42 12,50l15 17 12 -8 6 52 34 91 9 -35c0,0 12,30 13,45 2,19 34,99 44,117 3,6 7,12 10,18 -13,-8 17,41 28,57 49,74 137,190 175,262 12,31 32,84 37,115 5,30 45,136 61,163l12 21c95,208 195,410 295,616 12,25 23,51 38,75l33 49 29 28 11 36 -29 -1c-4,6 9,23 13,27l15 11 -13 6c-9,16 -20,11 -1,30 20,21 18,7 27,-21l30 11 24 42c16,15 36,54 46,73l28 55 33 38c11,24 23,48 34,72 2,16 12,49 12,49 12,4 24,11 30,22 7,15 21,25 28,40 7,15 19,13 29,25 7,8 15,19 24,25 8,5 46,1 56,-2 4,-1 9,-3 14,-4 -66,19 539,-182 693,-230 11,-3 -14,-46 -4,-47 -3,-7 -6,-13 -9,-18 -12,-18 1,-8 1,-29 0,-22 -5,-23 -16,-40 -10,-14 -20,-34 -33,-46 -16,-19 -38,-58 -51,-80 -23,-43 -20,-46 -54,-86 -8,-9 -18,-17 -26,-27 -13,-12 16,-26 -6,-52l-23 -46c-8,-16 -15,20 -16,25 -6,-13 -17,-30 -16,-44 1,-11 -19,-37 -19,-37l-13 -31c-9,-5 -18,-11 -25,-18 -8,-10 -24,-29 -24,-29 -49,-73 -148,-215 -182,-288l-2 -11c-19,-37 -38,-74 -56,-111 -16,-29 -32,-58 -48,-87 -29,-57 -57,-115 -84,-173l20 11c-20,-35 -47,-75 -62,-111 -8,-20 -20,-50 -31,-68 -14,-24 -15,-52 -35,-77 -30,-40 -95,-167 -117,-216 -101,-236 -200,-468 -294,-707l28 29c0,0 -12,-27 -17,-41 -6,-17 -15,-51 -15,-51l-13 -30c-1,-2 -15,-45 -15,-34 1,15 7,45 7,45 -13,-30 -26,-60 -37,-91 -17,-48 -43,-97 -61,-144 -48,-123 -84,-170 -137,-332 -17,-52 -115,-369 -144,-412l-26 -80 -9 -64c-5,-33 -10,-66 -15,-98l-22 -27c0,0 -12,-35 -16,-53 -4,-15 -6,-35 -13,-49 -21,-48 -41,-104 -59,-153l6 -25c-12,-35 -25,-74 -35,-109 -13,-46 -34,-100 -51,-147 -32,-99 -55,-209 -87,-304 -8,-29 -4,-72 -15,-104 -13,-29 -13,-36 -20,-66 -11,0 -30,0 -36,-11 -15,-40 -26,-89 -45,-126 -13,-30 -20,-75 -34,-102 -14,-23 -41,-105 -45,-132 -10,-76 7,-151 -20,-230 -4,-11 -22,-57 2,-23l-1 -23c4,-19 8,-37 13,-56 7,-9 15,-19 22,-28 0,0 2,-29 -9,-21 -9,7 -13,21 -14,32 -274,14 -532,74 -774,207 7,20 25,76 6,91 -23,9 -20,39 -18,59 1,17 8,28 10,49 3,30 7,72 5,101 -2,20 35,95 44,128 22,89 55,160 73,255 10,58 23,116 42,173l-44 -55c8,44 19,87 35,128 11,26 22,56 28,83l-9 42c19,90 52,232 97,309 17,25 31,40 44,65 13,25 18,53 14,81 12,36 24,74 34,111 7,24 17,48 30,70 20,55 41,111 62,166 0,0 8,51 15,74 34,123 70,246 107,368 16,50 38,97 67,141l13 41c26,58 52,116 79,173 13,23 39,72 32,98 -13,25 -4,31 3,62 8,35 30,107 30,107 25,33 50,67 76,100 17,25 37,88 48,119z"/>
  <path class="fil0" d="M9061 4991c-6,-2 -13,-3 -19,-5 -3,-8 -3,-17 1,-25 5,-10 3,3 6,-11 7,-33 3,-36 -7,-66 -8,5 -15,9 -23,14 5,-12 10,-24 15,-36 8,-1 15,-2 23,-3 4,7 7,15 11,22 5,-6 9,-36 7,-43 -3,-6 -5,-12 -8,-18 -5,1 -9,2 -14,3 4,-14 9,-29 13,-43 1,-28 2,-56 3,-84 -7,8 -14,17 -21,25 0,0 1,-28 4,-40 5,-15 6,-92 3,-109 -1,-6 -2,-12 -3,-18 9,11 0,-38 -4,-55 -16,-73 -54,-210 -60,-276 1,-30 4,-83 12,-110 7,-25 13,-134 10,-161 -1,-8 -2,-15 -2,-23 -2,-227 -7,-456 -6,-682 1,-30 2,-60 0,-90 -2,-21 -5,-43 -7,-64 -4,-14 -9,-28 -13,-42 2,-14 4,-28 6,-42 8,5 17,11 25,16 6,-4 2,-28 1,-34 -3,-6 -5,-13 -8,-19 5,0 9,0 14,0 16,-12 23,0 15,-31 -9,-32 -12,-17 -34,7 -7,-9 -15,-18 -22,-27 -1,-19 -1,-38 -2,-57 -7,-25 -7,-78 -6,-104 1,-25 1,-51 2,-76 -3,-21 -7,-41 -10,-62 1,-23 3,-46 4,-69 6,-15 13,-50 13,-50 -9,-11 -16,-24 -16,-39 0,-22 -8,-43 -7,-66 0,-24 -12,-32 -16,-55 -3,-17 -6,-39 -13,-55 -6,-12 -41,-24 -53,-24 -5,0 -9,0 -14,0 -76,-4 -323,-16 -378,-42 -18,-15 -24,-25 -39,-39 -12,-12 -112,-50 -132,-57 -31,-11 -40,-32 -76,-29 -28,0 -54,-11 -76,-29 -12,16 -14,-2 -14,-12 0,-11 -8,-75 -14,-31 -2,23 -1,48 4,71 -1,9 -3,39 -12,42 -7,0 -4,-3 -9,0 -6,4 -6,-7 -6,4 0,11 0,19 8,27 11,11 9,19 -1,31 -4,5 -8,10 -11,16 -8,3 -7,9 -3,16 7,10 20,31 20,31 0,0 -6,39 -1,54 5,15 -4,5 -12,19 -9,15 -4,17 -1,31 3,13 5,30 11,42 6,17 8,57 10,77 0,42 -5,41 7,84 5,17 19,35 2,50 -12,12 -15,29 -13,45 0,23 -1,46 -1,69 0,23 23,-15 26,-19 0,18 1,45 -7,61 -6,12 -1,54 -1,53 -1,14 -2,28 -3,42 6,11 11,22 13,34 3,15 8,45 8,45 10,109 35,290 33,391 -1,4 -2,8 -3,12 1,45 2,89 2,134 2,35 4,69 6,104 2,65 3,130 4,196 -5,-6 -9,-12 -14,-19 4,40 12,87 11,126 -1,21 -2,53 0,73 3,27 -7,52 1,81 11,45 21,181 22,231 0,229 5,460 8,689 -5,-11 -11,-22 -16,-33 0,0 2,26 1,39 -1,16 -4,47 -4,47 1,10 1,19 2,29 0,2 -2,42 2,33 4,-13 10,-39 10,-39 0,0 4,57 3,86 -1,45 9,92 7,137 5,111 21,162 18,313 -1,49 -8,339 6,384 0,25 0,50 0,75 -4,19 -7,38 -11,57 -5,30 -9,59 -14,89 4,10 9,20 13,30 0,0 1,34 1,50 -1,15 -4,32 -2,46 7,48 10,102 15,151 -4,7 -8,14 -12,21 2,35 5,73 5,107 0,45 8,102 12,148 6,100 3,217 14,313 2,31 -12,73 -7,108 7,32 5,40 6,72 12,2 29,7 33,19 7,46 8,98 20,142 8,36 6,84 16,117 11,38 22,117 24,157 -1,97 -27,178 -8,281 2,10 17,76 -4,29 0,10 -1,20 -1,30 -6,24 -11,48 -17,72 -8,12 -16,24 -24,36 -1,6 -4,37 7,29 10,-11 14,-29 16,-43 272,-5 543,-67 789,-181 -5,-21 -18,-82 4,-95 24,-7 24,-38 25,-57 0,-17 -4,-29 -3,-51 1,-30 1,-73 10,-102 3,-19 -20,-97 -23,-131 -7,-90 -26,-159 -24,-255 2,-55 1,-112 -5,-167 10,20 21,39 31,59 1,-41 0,-82 -6,-123 -4,-25 -9,-55 -9,-80 6,-12 12,-23 19,-35 3,-81 6,-213 -17,-289 -10,-25 -19,-41 -26,-66 -5,-24 -3,-49 8,-71 -1,-33 -3,-68 -2,-101 0,-22 -3,-44 -9,-65 -4,-50 -8,-101 -12,-151 0,0 7,-43 8,-64 4,-108 8,-216 12,-323 0,-44 -5,-88 -18,-130 0,-12 1,-24 1,-36 -6,-53 -11,-106 -17,-159 -4,-22 -12,-68 3,-86 20,-16 14,-21 19,-50 5,-30 9,-94 9,-94 -12,-34 -24,-68 -36,-102 -7,-24 -3,-82 -3,-109z"/>
  <path class="fil0" d="M8893 2763c1,-7 1,-13 2,-20 5,-3 10,-4 15,0 6,5 -2,3 6,5 20,6 22,1 39,-9 -3,-7 -6,-15 -9,-22 7,5 15,9 22,14 1,8 2,15 3,23 -4,4 -9,8 -13,12 4,5 21,7 26,5 4,-3 7,-6 11,-9 -1,-5 -1,-9 -2,-14 9,4 18,7 26,11 17,0 34,-1 51,-1 -5,-7 -11,-13 -16,-20 0,0 18,0 24,3 8,3 57,2 67,-1 4,-1 7,-2 11,-3 -6,10 23,-1 34,-6 25,-10 155,-70 170,-70 16,0 55,2 69,8 13,5 87,8 102,5 5,-1 9,-2 14,-3 142,-9 289,-21 430,-25 19,0 37,0 56,-3 13,-3 27,-6 40,-9 9,-5 17,-9 26,-14 9,2 17,4 26,5 -3,9 -6,17 -9,26 3,6 17,2 21,0 4,-3 8,-6 12,-9 0,5 0,9 0,14 7,13 0,23 19,14 20,-10 9,-15 -5,-34 5,-8 11,-15 16,-23 12,-1 23,-2 35,-3 14,-7 48,-8 63,-9 15,0 31,0 46,0 12,-4 25,-8 37,-12 14,1 28,2 41,3 8,5 30,12 30,12 5,-8 13,-16 23,-17 12,0 24,-9 39,-9 15,0 18,-12 32,-17 10,-3 23,-7 32,-14 8,-6 13,-44 13,-54 0,-5 0,-9 0,-14 2,-82 3,-313 20,-379 8,-16 14,-25 22,-40 11,-28 25,-102 31,-133 6,-31 18,-43 16,-76 0,-27 5,-52 16,-76 0,0 -11,-14 7,-14 12,-1 40,-10 18,-14 -14,-2 -27,0 -40,5 0,0 -24,-3 -24,-11 0,-6 2,-4 0,-9 -2,-6 4,-6 -2,-6 -8,0 -12,1 -16,9 -6,11 -11,9 -18,0 -3,-4 -6,-7 -9,-11 -1,-6 -4,-8 -9,-3 -6,7 -18,20 -18,20 -9,-3 -23,-5 -32,0 -8,5 -4,-4 -11,-12 -9,-8 -10,-4 -18,0 -8,4 -18,5 -25,12 -10,6 -34,9 -46,11 -27,2 -23,-5 -51,9 -11,5 -21,20 -30,3 -6,-10 -16,-15 -28,-12 -14,0 -28,0 -42,0 -14,0 9,22 12,26 -12,0 -28,2 -37,-6 -7,-5 -33,0 -33,0 -9,-1 -17,-2 -26,-2 -6,6 -13,11 -21,14 -9,3 -28,9 -28,9 -56,11 -199,42 -246,43 -2,-1 -5,-2 -7,-2 -28,2 -57,4 -85,6 -22,3 -44,6 -66,9 -42,4 -83,7 -125,9 4,-5 8,-9 12,-14 -24,5 -57,15 -80,15 -12,0 -36,0 -47,3 -13,4 -37,-6 -52,4 -13,8 -128,29 -146,30 -141,8 -286,22 -427,35 6,-6 13,-12 19,-17 0,0 -16,3 -24,3 -9,0 -28,-2 -28,-2 -6,1 -11,2 -17,3 3,0 -26,0 -19,3 7,3 23,8 23,8 0,0 -34,6 -51,6 -25,1 -55,13 -80,13 -53,8 -56,26 -176,32 -26,1 -179,9 -202,26 -13,1 -25,3 -38,4 -10,-3 -19,-5 -29,-8 -15,-3 -29,-6 -43,-9 -4,5 -9,10 -13,15 0,0 -16,3 -23,3 -6,0 -15,-2 -21,1 -19,8 -46,16 -67,23 -3,-4 -7,-7 -10,-11 -13,3 -33,9 -45,11 -10,1 -47,16 -59,20 -18,7 -106,26 -114,33 -3,3 -30,-6 -37,0 -10,10 -9,7 -22,11 0,0 1,32 -3,34 -13,10 -30,17 -39,30 -6,7 -26,16 -30,24 -3,6 -28,33 -35,35 -10,5 -49,-13 -61,14 -8,17 -9,12 -7,-2 -2,0 -4,1 -6,2 -6,-3 -13,-7 -19,-9 -5,-6 -10,-13 -15,-19 -7,1 -8,5 -5,11 4,5 8,10 15,10 86,257 150,486 200,754 -3,-10 -3,-15 0,0 0,2 3,22 6,22 1,0 0,-6 3,-6 5,-1 8,-1 11,4 3,3 7,-22 16,-30 18,-15 24,-35 51,-39 16,-2 31,-7 45,-15 -5,12 -10,23 -14,35 13,-1 25,-6 35,-14 6,-5 16,-13 24,-13 4,5 9,11 13,16 33,-2 78,-10 102,-34 9,-11 14,-21 24,-29 14,-12 29,4 29,4 0,0 28,-7 42,-7 10,-1 20,-7 28,-13 23,-7 45,-13 68,-20 9,3 21,4 30,4 54,-2 107,-4 161,-5 24,-2 47,-11 67,-24 6,0 13,0 19,-1 29,-8 57,-17 86,-25 0,0 40,-17 48,-1 9,18 8,12 29,16 16,3 54,4 54,4 19,-14 38,-27 57,-40 12,-7 49,-7 64,-7z"/>
  <path class="fil0" d="M9891 5952c6,2 13,4 19,6 3,11 2,22 -2,32 -7,13 -3,-5 -6,13 -9,40 -4,46 3,84 8,-6 16,-12 24,-17 -6,15 -11,30 -17,45 -8,1 -15,2 -23,4 -3,-10 -6,-19 -10,-29 -6,7 -11,46 -9,55 2,8 5,16 7,24 5,-1 10,-2 14,-3 -5,18 -10,37 -16,55 -3,36 -5,72 -8,107 8,-10 15,-21 23,-31 0,0 -2,35 -7,51 -7,30 -12,108 -12,139 0,8 1,16 1,23 -8,-14 -3,47 -1,71 9,99 31,264 28,357 -5,39 -15,101 -27,138 -8,26 -15,65 -19,92 -4,34 -15,72 -17,107 -1,9 -1,19 -2,28 -36,259 -87,537 -159,788 -10,32 -20,64 -28,96 -5,23 -9,46 -14,69 -1,16 -1,32 -2,48 -7,14 -14,27 -21,41 -6,-8 -12,-16 -18,-24 -6,2 -11,22 -12,28 0,2 -1,5 -1,7 0,8 0,16 0,24 -4,-2 -9,-3 -13,-5 -21,7 -21,-6 -26,28 -5,37 4,23 35,4 3,12 6,25 9,37 -7,21 -15,42 -23,63 -5,32 -28,84 -41,112 -12,26 -25,52 -37,77 -7,22 -14,44 -21,66 -13,22 -26,44 -39,65 -13,12 -37,41 -37,41 2,15 1,31 -7,44 -12,20 -17,43 -31,64 -14,21 -8,35 -18,57 -7,17 -18,37 -22,55 -3,13 18,44 29,51 4,3 8,6 11,8 61,49 251,201 277,261 3,28 1,38 1,63 0,16 48,120 58,140 15,31 3,58 34,78 24,19 31,50 32,79 25,-9 5,15 -1,22 -6,7 -68,86 -20,42 24,-23 46,-50 64,-78 8,-8 38,-41 48,-39 6,5 -1,6 7,5 9,-1 -2,12 9,-1 9,-11 18,-21 18,-36 1,-19 11,-27 28,-35 8,-4 15,-7 23,-11 10,2 14,-9 16,-16 3,-16 10,-47 10,-47 16,-18 36,-41 45,-63 8,-20 8,-4 25,-16 19,-13 17,-18 25,-37 8,-18 19,-38 23,-57 10,-28 34,-72 49,-100 27,-48 35,-53 52,-109 7,-23 6,-53 31,-65 20,-11 33,-32 40,-53 15,-30 29,-59 43,-89 12,-30 -27,8 -35,15 11,-23 25,-59 43,-77 13,-16 24,-50 31,-70 9,-18 17,-37 26,-55 0,0 2,-36 6,-51 5,-21 16,-64 16,-64 4,-11 7,-23 10,-35 43,-155 70,-324 111,-469 2,-5 4,-10 6,-14 14,-58 27,-116 39,-174 8,-46 16,-92 23,-137 15,-86 31,-173 45,-260 3,9 6,18 9,27 5,-55 7,-116 17,-170 5,-30 13,-68 14,-98 1,-18 8,-44 11,-63 3,-10 5,-36 3,-47 -4,-77 7,-237 14,-318 30,-307 44,-627 52,-936 5,15 10,30 14,44 0,0 0,-35 1,-52 1,-21 6,-62 6,-62 0,-13 0,-25 0,-38 0,-2 4,-55 -1,-43 -5,17 -11,51 -11,51 -1,-38 -1,-75 0,-113 3,-58 -6,-119 -3,-178 -2,-131 -17,-231 -12,-393 2,-57 12,-395 -3,-449 0,-16 -1,-34 0,-49 1,-12 0,-27 0,-39 4,-24 8,-49 11,-73 5,-37 10,-75 15,-112 -4,-12 -8,-25 -13,-37 0,0 -1,-42 0,-63 1,-18 4,-39 2,-57 -6,-60 -10,-124 -14,-185 4,-9 8,-17 12,-26 -2,-42 -5,-87 -5,-129 -1,-55 -8,-121 -13,-177 -7,-121 -7,-257 -19,-376 -3,-39 10,-88 5,-132 -8,-37 -6,-51 -8,-88 -13,-2 -30,-8 -33,-22 -9,-57 -11,-121 -25,-177 -9,-47 -9,-104 -20,-148 -14,-54 -27,-149 -31,-204 -3,-135 18,-247 -5,-388 -2,-11 -21,-109 3,-42 0,-14 0,-29 0,-43 4,-36 9,-72 13,-107 7,-19 15,-37 22,-56 0,4 2,-61 -9,-44 -11,16 -13,66 -13,66 -282,27 -552,147 -779,313 5,27 21,112 1,131 -24,11 -22,57 -22,79 0,23 5,41 6,68 0,41 2,94 -5,133 -3,27 24,123 28,166 8,105 33,203 32,312 0,65 2,134 9,199 -11,-23 -22,-46 -33,-69 -1,47 2,98 9,145 5,29 10,64 10,94 -6,14 -12,28 -18,42 -1,95 -3,250 20,338 10,29 19,48 26,77 6,29 3,58 -8,85 1,40 3,81 2,121 0,27 3,53 9,79 4,62 7,124 10,187 0,0 -8,54 -9,80 -1,16 -2,32 -2,48 -2,109 -8,220 -12,329 -1,52 5,104 17,155 -1,14 -1,29 -2,43 5,65 10,130 15,195 4,27 11,85 -4,107 -21,20 -15,30 -20,62 -6,38 -11,117 -11,117 11,43 22,86 33,129 7,33 0,103 -2,139z"/>
  <path class="fil0" d="M11924 5654c-6,-1 -13,-3 -19,-4 -3,-6 -2,-13 1,-18 6,-7 3,3 6,-7 8,-24 3,-26 -5,-48 -8,3 -16,6 -23,9 5,-8 10,-17 16,-25 8,0 15,-1 23,-1 4,6 7,11 11,17 5,-4 9,-25 8,-31 -3,-5 -5,-9 -8,-14 -5,1 -9,1 -14,1 5,-10 9,-20 14,-30 1,-20 3,-40 4,-60 -7,6 -14,11 -21,17 0,0 1,-21 5,-29 4,-9 7,-67 5,-78 -1,-4 -1,-9 -2,-13 9,8 1,-26 -3,-40 -9,-31 -56,-180 -55,-199 1,-19 7,-61 14,-77 7,-15 15,-96 13,-113 -1,-5 -1,-11 -2,-16 2,-156 2,-317 7,-472 1,-21 3,-41 1,-61 -2,-15 -4,-29 -6,-44 -4,-10 -8,-19 -12,-29 2,-9 5,-19 7,-28 8,4 17,8 25,12 6,-2 3,-18 1,-23 -3,-4 -5,-9 -8,-13 5,0 9,1 14,1 14,-6 23,1 15,-20 -8,-22 -13,-11 -34,3 -7,-6 -14,-13 -21,-19 0,-13 0,-25 -1,-38 -6,-16 -5,-53 -4,-69 1,-17 2,-33 3,-50 -3,-14 -6,-27 -9,-41 2,-15 4,-30 6,-45 6,-9 14,-32 14,-32 -8,-7 -15,-16 -16,-26 1,-14 -7,-27 -6,-43 1,-16 -11,-21 -15,-36 -3,-11 -6,-26 -12,-36 -6,-9 -42,-17 -53,-18 -5,0 -9,-1 -14,-1 -79,-7 -316,-25 -376,-46 -16,-10 -24,-17 -38,-27 -16,-11 -108,-37 -131,-43 -31,-9 -41,-22 -75,-22 -27,-1 -52,-9 -75,-22 0,0 -15,11 -14,-9 0,-12 -7,-46 -13,-20 -2,15 -2,31 3,45 0,0 -5,27 -13,26 -6,-1 -4,-2 -9,-1 -6,2 -6,-5 -6,2 -1,9 0,13 7,18 11,7 9,13 -1,20 -4,3 -8,6 -12,9 -7,1 -8,4 -4,10 7,7 19,21 19,21 -3,10 -6,25 -2,35 5,10 -4,3 -12,12 -9,9 -4,11 -1,20 3,9 4,20 10,28 5,11 7,38 8,51 0,28 -6,26 5,56 5,12 18,24 1,33 -11,6 -16,17 -14,29 -1,15 -2,30 -3,46 -1,15 23,-9 26,-11 -1,13 0,30 -9,40 -6,7 -2,35 -2,35 -1,9 -3,19 -4,28 5,7 10,15 13,24 2,10 7,31 7,31 7,63 28,214 25,268 -1,3 -2,5 -3,8 0,31 0,62 0,92 1,24 3,48 4,72 1,46 0,91 0,137 -4,-5 -9,-9 -13,-14 3,27 10,63 8,89 -1,14 -3,39 -1,52 3,15 -9,40 -1,57 7,16 19,143 18,165 -4,164 -3,331 -4,496 -5,-8 -10,-16 -16,-25 0,0 1,19 1,28 -1,11 -5,34 -5,34 0,7 1,14 1,21 0,-4 -2,31 2,24 4,-9 10,-28 10,-28 0,0 3,42 1,62 -2,32 7,68 5,100 3,80 19,95 13,228 -2,35 -13,248 1,279 0,18 0,36 -1,55 -4,14 -8,27 -11,41 -5,21 -10,42 -15,64 4,7 8,15 13,22 0,0 1,24 0,36 -1,10 -4,23 -2,33 6,34 9,75 13,110 -4,5 -8,10 -13,15 1,24 4,54 3,77 0,30 6,75 10,107 5,69 1,159 10,224 3,10 -14,58 -9,76 7,24 5,26 5,51 9,2 29,5 33,15 6,32 7,71 18,101 7,21 6,66 14,82 8,17 22,90 23,110 -2,65 -29,120 -11,192 3,11 15,51 -5,19 -1,7 -1,13 -2,20 -6,16 -12,32 -18,48 -8,8 -16,16 -24,23 0,0 -5,27 7,20 9,-6 14,-18 16,-28 265,10 534,-16 790,-86 -5,-16 -16,-57 5,-65 22,-3 24,-20 26,-39 1,-13 -4,-17 -3,-36 1,-20 3,-52 11,-70 4,-14 -19,-65 -21,-93 -6,-66 -24,-108 -21,-180 2,-37 3,-81 -3,-118 10,14 20,29 31,43 2,-29 1,-59 -5,-87 -4,-16 -9,-41 -8,-57 6,-8 13,-16 19,-24 4,-59 8,-154 -14,-208 -10,-19 -18,-29 -25,-49 -5,-18 -2,-36 9,-51 0,0 -2,-49 0,-73 1,-16 -3,-32 -8,-48 -3,-37 -6,-73 -10,-110 0,0 8,-32 9,-46 5,-78 11,-156 16,-234 1,-33 -5,-64 -16,-95 1,-9 1,-17 2,-26 -5,-39 -10,-78 -15,-116 -4,-17 -11,-50 4,-63 19,-10 14,-11 20,-35 5,-21 10,-67 10,-67 -11,-25 -23,-50 -34,-75 -6,-16 -2,-61 -1,-79z"/>
  <path class="fil0" d="M11825 2645c-6,-3 -12,-5 -18,-8 0,0 -4,-4 1,-3 3,0 3,2 6,1 9,-2 -1,-8 -4,-12 -7,-2 -14,-5 -22,-7 5,0 10,1 15,1 7,3 14,6 21,8 3,2 6,5 9,7 3,1 9,0 7,-3 -2,-2 -5,-4 -7,-6 -4,-2 -9,-3 -13,-5 4,0 9,-1 13,-1 2,-4 3,-7 5,-11 -7,-2 -13,-3 -20,-5 1,-2 3,-4 5,-4 4,0 8,-12 7,-15 -1,-1 -1,-3 -2,-4 9,6 -1,-9 -1,-10 -5,-7 -45,-66 -43,-70 2,-5 11,-13 16,-14 6,-1 19,-19 18,-25 0,-2 -1,-3 -1,-5 11,-44 25,-100 41,-142 3,-7 6,-13 7,-21 0,-6 -1,-12 -1,-18 -3,-5 -6,-10 -8,-15 3,-2 6,-5 9,-7 7,5 15,9 22,14 6,1 5,-5 4,-8 -2,-3 -4,-5 -6,-8 4,2 9,4 13,6 11,3 20,10 16,-2 -6,-13 -17,-10 -32,-12 -6,-5 -12,-10 -18,-16 1,-5 2,-10 3,-15 -4,-9 0,-21 4,-29 3,-6 6,-13 9,-19 -1,-7 -2,-14 -4,-21 4,-6 7,-11 11,-17 5,-1 17,-9 17,-9 0,0 -13,-12 -11,-17 2,-6 -3,-14 0,-22 3,-7 -8,-14 -9,-22 -1,-7 -2,-15 -6,-21 -4,-7 -38,-24 -47,-28 -4,-2 -9,-4 -13,-6 -96,-42 -260,-108 -344,-158 -12,-9 -21,-18 -32,-27 -31,-22 -82,-49 -116,-68 -25,-14 -39,-27 -67,-38 -23,-10 -47,-22 -67,-38 0,0 -15,0 -11,-9 4,-8 -2,-24 -9,-15 -5,7 -6,15 -4,23 0,0 -8,11 -15,8 -4,-2 -4,-3 -8,-3 -6,-1 -5,-4 -6,-1 -2,5 0,8 5,11 8,7 7,9 -4,9 -4,0 -8,0 -12,0 1,0 -11,-4 -5,3 5,5 15,16 15,16 0,0 -10,8 -6,15 3,6 -4,0 -13,1 -9,1 -5,3 -4,8 2,6 2,10 6,16 4,5 2,24 2,24 -4,13 -9,7 -1,24 3,7 14,16 -3,13 -5,-1 -17,-2 -15,6 -2,5 -5,11 -7,16 -2,5 23,6 26,6 -3,6 -4,11 -12,12 -5,1 -6,8 -5,12 -2,3 -4,6 -6,8 0,0 8,9 9,13 1,4 3,13 3,13 1,15 5,91 2,98 -1,0 -2,1 -3,1 -2,9 -5,19 -7,28 0,8 -1,15 -1,23 -2,13 -6,26 -9,39 -4,-3 -7,-6 -11,-9 1,6 5,23 2,28 -1,3 -5,11 -4,14 2,4 -10,8 -4,15 5,6 10,46 7,52 -11,38 -19,91 -27,131 -4,-4 -9,-8 -13,-12 0,0 0,6 -1,8 -1,3 -6,8 -6,8 0,2 0,4 0,6 0,0 -3,8 0,7 4,-1 11,-4 11,-4 0,0 1,13 -1,18 -2,6 3,23 1,29 0,8 24,0 4,69 -4,14 -19,69 -8,82 -1,5 -1,11 -2,16 -4,3 -8,6 -12,9 -6,5 -11,10 -16,16 4,3 8,7 12,10 0,0 0,8 -1,12 -1,3 -5,6 -3,10 5,11 10,40 10,39 -4,1 -8,1 -13,2 0,-2 3,21 1,27 -1,4 6,33 7,39 3,14 1,79 5,85 2,3 -14,21 -10,28 6,11 4,10 4,22 0,0 30,9 32,13 6,15 7,32 16,46 5,8 6,32 12,39 6,8 19,45 19,54 -4,28 -32,53 -17,93 7,14 10,26 -5,9 -1,3 -1,7 -2,10 -6,8 -13,15 -19,23 -8,3 -17,6 -25,9 0,0 -5,14 6,12 8,-2 14,-6 17,-13 254,47 522,76 780,87 -5,-11 -12,-30 6,-29 13,1 23,1 26,-13 1,-6 -4,-6 -2,-16 2,-9 4,-22 12,-28 5,-6 -16,-25 -20,-41 -2,-21 -24,-47 -19,-71 3,-13 3,-27 -2,-40 10,7 20,14 30,21 2,-10 1,-20 -4,-29 -3,-4 -8,-13 -7,-19 6,-1 12,-2 18,-3 5,-22 4,-44 -13,-60 -8,-7 -17,-11 -24,-19 -9,-9 9,-10 9,-10 0,0 -2,-13 -1,-17 1,-5 -8,-13 -8,-13 -3,-9 -6,-18 -10,-27 3,-2 7,-4 8,-7 5,-14 9,-28 14,-42 3,-8 -16,-24 -16,-24 1,-1 1,-3 2,-4 -5,-9 -9,-18 -14,-27 0,0 -12,-15 4,-10 13,3 9,5 18,0 4,-2 8,-5 10,-9 -10,-9 -21,-18 -31,-27 -5,-5 -2,-11 0,-16z"/>
  <path class="fil0" d="M423 3726c1,6 2,13 3,19 -1,3 -3,4 -6,1 -3,-4 0,-3 -3,-5 -10,-5 -10,4 -13,11 3,7 5,14 8,22 -4,-4 -7,-8 -11,-12 -2,-7 -4,-15 -5,-22 1,-4 2,-8 3,-12 -2,-4 -9,-6 -11,-3 -1,3 -2,6 -2,9 1,5 2,9 3,14 -4,-3 -8,-6 -12,-9 -6,1 -12,2 -18,4 3,6 6,12 9,19 -3,1 -7,1 -9,-1 -3,-3 -20,1 -23,5 -1,1 -2,3 -3,4 0,-11 -10,7 -10,8 -5,8 -39,77 -42,78 -6,1 -18,0 -23,-4 -5,-4 -27,-4 -31,0 -1,1 -2,3 -3,4 -30,12 -73,33 -102,42 -4,1 -8,1 -11,4 -2,3 -4,6 -6,10 -1,5 -2,10 -3,15 -2,-2 -4,-3 -5,-5 -1,-9 -1,-17 -2,-26 -1,-5 -3,-3 -4,1 0,3 0,6 -1,9 -1,-5 -1,-9 -2,-14 -1,-4 -3,-24 -5,-13 -2,11 3,23 6,33 0,8 0,15 1,23 -2,1 -3,3 -5,4 -1,4 -3,9 -8,10 -2,0 -4,0 -6,1 -1,4 -2,8 -3,12 -1,-1 -3,-2 -4,-3 -1,-4 -3,-11 -3,-11 0,0 1,17 0,17 -1,0 -1,9 -1,9 0,0 0,16 0,17 0,5 0,9 0,14 0,18 1,36 1,54 0,5 0,9 0,14 3,118 11,263 5,379 -2,14 -4,26 -6,40 -5,43 -8,89 -13,133 -3,27 -10,48 -10,76 -1,26 -4,52 -13,76 0,0 7,15 -5,14 -10,-1 -31,9 -14,13 9,2 20,1 28,-4 0,0 15,3 14,11 0,4 -1,5 0,9 1,6 -2,6 1,6 6,0 7,-3 9,-8 3,-10 5,-10 9,0 2,4 3,7 5,11 0,-1 1,12 5,3 3,-7 8,-20 8,-20 0,0 10,6 14,-1 3,-5 2,4 5,11 4,8 4,3 7,0 3,-5 7,-6 9,-12 2,-5 15,-12 15,-12 10,-3 8,5 16,-10 3,-6 4,-20 9,-4 1,2 5,16 10,11 4,0 8,-1 12,-2 4,-1 -6,-23 -7,-25 6,-1 8,-2 11,5 3,4 6,1 9,-1 3,0 5,1 8,1 0,0 1,-11 4,-15 2,-3 7,-10 7,-10 9,-8 54,-51 61,-53 1,1 2,1 2,2 8,-3 15,-6 23,-10 6,-4 12,-8 17,-12 11,-6 23,-11 35,-15 0,5 -1,10 -1,14 5,-5 16,-17 22,-18 4,-1 12,-2 14,-5 2,-4 13,3 16,-6 2,-7 35,-35 42,-37 46,-16 97,-39 143,-58 -1,6 -3,12 -4,18 0,0 5,-4 8,-4 3,-1 11,0 11,0 2,-1 4,-2 6,-4 0,0 10,-2 7,-4 -3,-3 -10,-7 -10,-7 0,0 12,-8 18,-9 8,-2 21,-16 28,-17 7,-4 -12,-21 65,-41 14,-3 75,-19 82,-35 5,-2 11,-4 16,-6 5,2 9,4 14,6 7,2 14,5 21,7 1,-5 2,-10 4,-15 0,0 7,-4 10,-4 3,-1 7,1 10,-2 7,-9 28,-26 28,-25 2,4 4,7 6,11 -1,1 16,-11 20,-12 3,-1 22,-18 26,-22 8,-7 51,-29 54,-34 1,-3 16,6 19,1 4,-9 3,-6 11,-10 0,0 -3,-31 -1,-34 7,-10 15,-16 20,-28 3,-7 14,-15 16,-22 2,-6 15,-30 20,-33 5,-4 27,18 35,-5 7,-18 5,-6 3,3 1,0 2,0 3,0 3,5 5,9 7,14 1,8 2,15 3,23 3,2 2,-8 2,-9 0,-3 -1,-12 -4,-14 -4,-266 -16,-516 -61,-779 0,0 -20,23 -23,1 -1,-10 -3,-23 -15,-22 -5,0 -3,6 -12,6 -8,1 -18,2 -24,-3 -6,-3 -15,23 -28,31 -17,9 -31,38 -54,41 -13,2 -26,7 -37,16 3,-12 6,-23 9,-35 -11,2 -20,7 -27,15 -4,5 -10,13 -17,14 -4,-5 -7,-10 -11,-16 -25,4 -52,15 -63,39 -4,11 -5,20 -11,30 -7,13 -18,-3 -18,-3 0,0 -15,8 -23,10 -6,2 -11,9 -13,14 -11,8 -22,16 -33,23 -5,-2 -11,-3 -16,-3 -26,5 -52,10 -77,14 -13,4 -21,16 -26,28 -3,1 -6,1 -8,2 -11,10 -22,20 -33,29 0,0 -14,19 -20,4 -6,-15 -2,-11 -15,-14 -8,-2 -15,-2 -23,-1 -5,14 -10,29 -15,43 -3,7 -17,10 -23,11z"/>
  <path class="fil0" d="M12462 4976l19 5c3,9 2,17 -1,26 -6,10 -3,-4 -6,10 -8,33 -3,36 5,66l23 -14 -16 35 -23 3 -10 -23c-5,6 -9,36 -8,43l8 19 14 -3 -18 126 21 -24c0,0 -1,28 -5,40 -5,14 -7,92 -6,108 1,6 1,12 2,18 -9,-11 -1,37 3,55 14,72 49,209 54,275 -1,29 -6,81 -14,108 -8,25 -16,132 -13,158l2 22c-2,221 -2,445 -7,666 -1,29 -3,58 -1,88l19 104 -7 40 -25 -16c-6,4 -3,27 -1,33l8 19 -14 -1c-16,11 -23,0 -15,29 8,31 12,17 34,-6l22 27 1 55c7,23 6,77 5,101l2 201c-6,15 -13,48 -13,48 9,11 15,24 16,38 -1,21 7,42 6,65 -1,23 12,32 15,53 3,16 6,38 12,53 5,12 41,24 53,24 4,0 9,0 14,0 32,2 93,6 158,11 2,-1 3,-2 4,-2 25,-15 44,-13 48,-15 25,-14 17,-19 68,-29 41,-8 73,-2 96,13 32,-2 70,-2 103,-1l9 -3c31,-11 52,-4 79,-6l95 -31c29,-19 63,-26 94,-22 -4,-15 -5,-32 -12,-46 -5,-17 -7,-56 -9,-75 0,-41 6,-39 -6,-82 -5,-17 -18,-34 -1,-48 12,-11 15,-28 13,-44l2 -66c1,-23 -23,14 -26,18 1,-17 0,-44 8,-59 7,-12 2,-51 2,-51l4 -40c-14,-25 -16,-50 -20,-78 -9,-105 -30,-283 -27,-379l-1 -243c-1,-64 0,-127 0,-191l13 19c-3,-39 -10,-85 -8,-123 1,-21 4,-52 1,-72 -2,-26 8,-51 1,-80 -9,-27 -18,-193 -17,-228 5,-228 5,-459 7,-687l15 34c0,0 -1,-27 0,-40 1,-16 5,-47 5,-47l-1 -29c0,-2 3,-42 -1,-33 -4,13 -11,39 -11,39 0,0 -2,-59 -1,-87 2,-45 -4,-94 -4,-139 0,-113 -17,-170 -10,-322 2,-53 16,-352 3,-402l30 -234 -12 -32c0,0 0,-36 1,-54 1,-16 4,-34 3,-50 -5,-53 -8,-110 -11,-164l13 -23c-1,-38 -3,-79 -2,-117 1,-50 -5,-112 -8,-163 -4,-113 1,-239 -7,-350 -1,-36 13,-82 10,-122 -6,-36 -4,-46 -4,-82 -13,-3 -29,-8 -33,-22 -6,-53 -6,-112 -17,-163 -7,-42 -5,-95 -13,-135 -11,-46 -20,-135 -21,-183 3,-115 30,-211 13,-332 -2,-11 -16,-91 5,-34l20 -122 25 -44c1,-5 5,-45 -7,-36 -11,11 -17,52 -17,52 -276,6 -551,85 -792,216 4,24 16,97 -5,112 -24,8 -25,47 -26,67 -1,20 4,35 3,60 -2,36 -4,84 -11,118 -5,23 18,113 20,152 5,102 23,184 19,290 -3,61 -4,126 1,187l-30 -67c-2,45 -2,93 4,137 4,29 8,60 7,89l-19 39c-4,88 -10,235 11,317 9,27 18,45 24,72 5,26 2,53 -10,77 0,36 1,73 0,108 -1,23 2,48 8,70l8 161c0,0 -8,46 -9,68 -6,113 -13,226 -19,339 -1,45 3,91 15,135l12 201c4,23 11,70 -5,88 -20,16 -15,21 -20,51 -5,30 -11,95 -11,95l34 104c6,24 2,83 0,110z"/>
  <path class="fil0" d="M15668 4020c-6,-2 -13,-3 -19,-5 -3,-9 -3,-18 1,-26 5,-10 3,4 6,-11 8,-34 3,-37 -6,-68 -8,5 -15,10 -23,14 5,-12 10,-24 15,-37 8,-1 15,-2 23,-3 4,8 7,15 11,23 5,-6 9,-37 7,-44 -3,-6 -5,-13 -8,-19 -5,1 -9,2 -14,3 4,-15 9,-30 13,-44 1,-29 2,-57 3,-86 -7,8 -14,17 -21,25 0,0 1,-29 5,-41 5,-15 6,-94 4,-111 -1,-6 -2,-12 -2,-19 9,11 0,-39 -4,-57 -16,-75 -52,-214 -58,-282 1,-30 5,-84 12,-112 7,-26 14,-136 11,-164 -1,-8 -2,-15 -2,-23 0,-229 -4,-460 -2,-689 1,-30 2,-60 0,-91 -2,-21 -5,-43 -7,-64 -4,-14 -9,-28 -13,-42 2,-14 4,-28 6,-42 8,5 17,11 25,16 6,-4 2,-28 1,-34 -3,-6 -5,-13 -8,-19 5,0 9,0 14,0 16,-12 23,0 15,-31 -9,-32 -12,-17 -34,7 -7,-9 -15,-18 -22,-27 -1,-19 -1,-38 -2,-57 -7,-24 -7,-78 -7,-103 0,-25 1,-51 1,-76 -4,-20 -7,-41 -11,-61 1,-23 3,-46 4,-69 6,-15 12,-49 12,-49 -9,-11 -16,-24 -17,-38 0,-21 -8,-43 -8,-66 0,-24 -12,-32 -17,-54 -3,-17 -7,-38 -14,-54 -6,-12 -41,-23 -54,-23 -5,0 -9,0 -14,0 -76,-3 -323,-12 -378,-37 -18,-15 -25,-24 -40,-38 -13,-11 -112,-47 -133,-54 -32,-10 -40,-30 -76,-27 -28,1 -54,-10 -76,-27 -11,15 -14,-2 -14,-12 0,-12 -10,-73 -14,-30 -1,23 0,46 5,68 0,0 -2,41 -11,41 -7,0 -4,-3 -9,0 -6,4 -6,-7 -6,4 0,11 0,19 8,26 11,10 9,19 0,30 -4,5 -7,10 -11,15 -8,3 -7,9 -3,15 7,10 20,30 20,30 0,0 -6,39 0,53 5,14 -4,5 -12,19 -8,15 -4,17 0,31 3,13 5,29 11,41 6,17 9,56 10,76 1,41 -5,40 8,82 5,17 19,34 2,49 -12,12 -15,28 -12,45 0,23 -1,45 -1,68 0,23 23,-15 26,-19 0,18 1,44 -7,60 -7,13 -1,52 -1,52 -1,14 -2,28 -3,41 6,10 11,23 13,34 3,15 8,45 8,45 11,107 34,289 33,389 -1,4 -2,8 -3,12 1,45 1,89 2,134 2,35 4,70 5,105 2,66 2,132 2,197 -4,-6 -9,-13 -13,-19 4,40 11,88 10,127 -1,22 -3,53 0,74 3,27 -8,52 0,82 11,46 20,185 20,236 -1,236 2,475 4,711 -5,-11 -11,-23 -16,-34 0,0 2,27 1,41 -1,16 -4,49 -4,49 0,10 1,20 1,30 0,2 -2,43 2,34 4,-13 10,-41 10,-41 2,29 3,60 3,89 -2,47 8,96 7,143 5,115 21,178 18,329 -1,53 -6,358 9,408 0,27 1,54 1,80 -3,20 -7,41 -10,61 -4,32 -9,64 -13,95 5,10 9,21 14,31 0,0 2,36 2,54 0,5 0,10 -1,15 -1,12 -2,24 0,36 7,52 11,111 15,164 -4,8 -8,15 -13,23 1,37 3,79 2,116 -1,49 4,108 6,158 2,108 -8,226 -4,331 0,33 -17,75 -14,112 5,33 3,42 1,75 12,3 29,9 32,22 4,47 2,102 11,148 5,37 1,86 9,120 9,39 16,120 17,160 -5,97 -33,177 -14,280 2,11 17,75 -4,29 0,10 -1,20 -1,29 -5,24 -11,48 -16,72 -8,12 -15,24 -23,37 0,6 -3,37 8,29 10,-11 13,-29 14,-43 262,-12 544,-77 786,-173 -5,-19 -17,-73 5,-84 23,-5 25,-32 26,-51 1,-16 -3,-25 -2,-47 2,-28 4,-69 13,-94 4,-18 -16,-94 -17,-128 -2,-93 -17,-160 -9,-258 5,-57 9,-119 7,-176 9,22 18,43 27,65 4,-44 6,-88 2,-133 -3,-27 -6,-62 -3,-89 7,-13 14,-26 21,-38 8,-95 17,-243 -4,-333 -9,-30 -18,-49 -24,-79 -5,-29 -2,-59 9,-86 -1,-41 -2,-82 -2,-123 0,-10 -2,-50 -6,-59 -1,-6 -3,-12 -5,-18 -5,-53 -10,-106 -14,-159 0,0 6,-46 7,-67 2,-113 5,-226 8,-339 0,-46 -6,-92 -19,-135 0,-12 1,-25 1,-37 -6,-55 -12,-110 -18,-166 -4,-23 -12,-71 3,-90 20,-17 14,-22 19,-52 5,-31 9,-97 9,-97 -12,-35 -24,-70 -36,-105 -7,-25 -3,-85 -2,-112z"/>
  <path class="fil0" d="M14447 4439c-7,1 -13,2 -20,4 -6,-7 -10,-15 -11,-25 0,-12 4,2 1,-13 -8,-35 -14,-36 -36,-62 -5,8 -10,16 -15,23 -1,-14 -2,-28 -2,-41 6,-4 13,-9 19,-13 7,6 13,12 20,17 2,-8 -8,-39 -13,-45 -5,-5 -10,-10 -16,-15 -4,3 -8,6 -12,9 -3,-16 -5,-32 -8,-48 -12,-28 -24,-56 -35,-84 -3,11 -5,22 -8,33 0,0 -12,-28 -14,-41 -3,-17 -36,-93 -46,-109 -4,-6 -7,-11 -11,-17 13,7 -17,-38 -28,-53 -49,-68 -142,-184 -179,-250 -13,-31 -33,-83 -39,-115 -5,-30 -47,-138 -63,-166 -4,-7 -8,-14 -12,-22 -102,-225 -207,-453 -304,-680 -12,-30 -24,-60 -39,-90 -11,-20 -23,-41 -34,-61 -10,-12 -20,-24 -30,-37 -4,-15 -8,-29 -12,-44 10,2 20,4 30,6 4,-7 -10,-28 -14,-34 -5,-5 -10,-10 -16,-16 4,-2 9,-4 13,-5 10,-18 21,-9 1,-36 -21,-28 -19,-12 -28,20 -11,-6 -21,-12 -32,-18 -9,-18 -17,-37 -26,-55 -17,-21 -39,-75 -49,-100 -10,-25 -20,-50 -30,-75 -12,-19 -23,-38 -35,-56 -8,-23 -16,-46 -24,-70 -1,-17 -9,-53 -9,-53 -13,-7 -25,-18 -31,-31 -8,-21 -25,-39 -34,-62 -9,-23 -24,-27 -37,-47 -10,-15 -21,-35 -34,-48 -10,-10 -47,-7 -59,-3 -4,2 -9,3 -13,5 25,-10 -324,119 -366,104 -23,-8 -32,-15 -52,-23 -16,-7 -123,-6 -145,-5 -33,1 -50,-16 -82,1 -26,11 -55,9 -82,1 -5,20 -14,2 -18,-7 -4,-10 -37,-70 -25,-25 7,23 18,47 32,67 3,9 12,39 6,46 -7,3 -5,-2 -8,3 -4,6 -8,-5 -4,6 4,11 7,19 18,24 15,6 16,16 12,30 -1,7 -3,13 -4,20 -7,6 -3,12 3,17 10,7 31,23 31,23 0,0 10,41 21,54 11,13 -2,7 -3,23 -2,18 3,18 12,31 9,12 16,28 27,37 13,15 31,54 41,73 17,41 13,43 41,81 12,15 32,27 23,49 -6,17 -2,35 7,50 9,23 18,46 28,69 9,24 15,-24 16,-29 7,18 20,44 19,64 -1,15 22,54 21,54 5,14 10,29 15,43 10,8 20,19 27,29 9,14 26,43 26,43 59,110 155,273 200,381 1,4 2,9 3,13 20,45 41,90 61,135 17,34 34,69 52,103 31,65 61,131 91,197 -7,-4 -14,-9 -21,-13 22,39 49,83 66,123 9,22 21,54 33,74 15,26 17,56 37,82 32,43 100,172 124,224 103,229 213,458 321,685 -10,-9 -20,-17 -30,-26 0,0 13,25 19,38 7,16 18,48 18,48 5,9 10,18 14,27 1,2 17,42 17,31 -2,-14 -9,-42 -9,-42 14,27 29,55 41,83 19,44 49,86 68,130 53,102 94,154 156,293 20,45 142,321 175,357 11,23 22,46 33,69 5,19 10,38 15,57 8,29 17,58 25,86 8,7 16,14 24,21 0,0 15,30 22,45 6,13 10,30 18,42 26,40 52,86 77,127 -1,8 -1,16 -2,24 16,29 35,62 49,91 19,38 49,84 71,121 45,80 91,179 138,253 13,23 18,64 36,90 19,23 20,28 33,55 10,-3 29,-8 37,1 23,32 45,73 72,101 20,23 38,62 58,82 18,16 68,84 79,106 32,68 39,139 92,203 8,8 40,44 6,22 3,7 6,14 9,21 3,19 6,37 9,56 -3,11 -6,23 -10,34 0,0 9,28 16,16 5,-11 4,-24 0,-36 240,-117 464,-271 651,-460 -12,-14 -44,-51 -30,-69 18,-14 10,-35 2,-52 -6,-13 -13,-17 -22,-36 -10,-22 -26,-55 -28,-79 -4,-16 -53,-62 -69,-89 -42,-68 -83,-109 -119,-187 -19,-43 -43,-91 -69,-131 17,11 34,23 52,34 -15,-33 -33,-67 -54,-97 -12,-16 -32,-43 -40,-62 1,-12 2,-25 3,-37 -30,-70 -83,-183 -134,-236 -20,-18 -34,-27 -51,-46 -15,-18 -24,-42 -22,-66 -15,-28 -31,-58 -44,-88 -9,-20 -22,-38 -36,-54 -25,-44 -50,-87 -75,-131 0,0 -12,-42 -21,-61 -44,-101 -87,-202 -131,-303 -19,-41 -44,-80 -74,-114 -5,-11 -10,-23 -15,-34 -29,-48 -58,-96 -86,-144 -14,-19 -42,-60 -36,-84 11,-24 3,-27 -5,-56 -9,-31 -34,-94 -34,-94 -26,-28 -52,-56 -78,-83 -17,-21 -40,-78 -51,-105z"/>
  <path class="fil0" d="M15550 1812c-1,-6 -2,-13 -2,-19 2,-4 5,-5 9,-2 4,4 0,3 5,5 14,4 14,-3 21,-13 -3,-7 -6,-14 -9,-21 5,4 10,8 15,11 2,7 4,15 6,22 -2,4 -4,9 -5,13 3,4 14,5 16,2 2,-3 3,-6 5,-10 -1,-5 -3,-9 -4,-14 6,3 12,6 17,8 10,-2 19,-4 29,-6 -4,-6 -9,-12 -13,-18 0,0 11,-2 14,0 5,3 32,-4 37,-8 2,-1 4,-3 6,-4 -2,12 17,-9 18,-9 9,-10 72,-85 77,-87 8,-2 31,-3 38,0 8,4 47,-2 54,-7 2,-2 4,-3 7,-5 69,-24 145,-54 214,-75 10,-2 19,-4 28,-9 6,-4 12,-9 18,-13 3,-6 6,-11 10,-17 5,1 10,1 14,2 0,9 1,17 1,26 3,5 8,0 11,-3 1,-3 3,-7 4,-10 1,5 2,9 3,14 6,11 5,22 13,11 8,-13 -1,-19 -11,-32 1,-8 2,-16 3,-24 6,-2 11,-5 17,-7 5,-9 21,-14 30,-16 8,-2 16,-4 23,-6 5,-5 11,-11 16,-16 7,-1 15,-2 22,-2 5,3 18,7 18,7 0,0 2,-18 7,-20 6,-2 10,-11 18,-13 8,-2 6,-14 12,-21 5,-5 10,-11 13,-18 3,-7 -4,-45 -6,-54 -1,-5 -2,-9 -3,-14 -24,-102 -71,-273 -82,-370 0,-14 2,-27 2,-41 -1,-38 -10,-95 -16,-133 -4,-28 -2,-48 -10,-76 -7,-25 -10,-50 -10,-76 0,0 -9,-12 0,-15 9,-2 18,-16 6,-16 -8,0 -15,4 -20,11 0,0 -14,0 -16,-7 -1,-4 0,-5 -2,-8 -2,-5 0,-6 -3,-6 -6,1 -6,5 -6,10 0,11 -3,11 -9,2 -3,-3 -5,-6 -7,-9 0,1 -4,-11 -6,-2 -1,7 -4,22 -4,22 0,0 -13,-3 -17,4 -3,6 -2,-3 -9,-10 -7,-7 -6,-2 -10,2 -4,5 -8,8 -10,15 -3,7 -21,17 -21,17 -15,6 -12,-3 -24,15 -4,7 -6,22 -15,7 -3,-6 -10,-14 -17,-8 -7,2 -14,4 -21,5 -7,2 10,21 12,23 -7,2 -14,5 -20,-1 -5,-3 -12,1 -16,4 -4,0 -9,1 -13,1 0,0 -4,13 -7,16 -4,4 -12,12 -12,12 -17,12 -97,67 -110,71 -1,-1 -3,-1 -4,-1 -13,5 -27,10 -40,15 -10,5 -20,11 -30,16 -19,9 -39,16 -58,23 1,-5 2,-10 2,-15 -9,6 -26,21 -36,23 -5,1 -18,4 -22,8 -4,4 -19,-1 -24,9 -4,8 -55,41 -65,44 -68,22 -139,49 -207,73 2,-6 5,-13 7,-19 0,0 -8,4 -12,5 -5,1 -15,0 -15,0 -3,1 -6,3 -8,4 0,0 -13,3 -9,5 4,3 14,6 14,6 0,0 -17,9 -25,10 -12,2 -28,17 -40,19 -9,4 5,24 -91,44 -17,3 -104,20 -115,36 -8,2 -15,4 -23,6 -6,-2 -12,-4 -19,-6 -9,-3 -19,-5 -28,-8 -2,5 -5,10 -7,15 0,0 -10,4 -15,4 -4,0 -10,-1 -14,2 -11,8 -31,18 -44,25 -3,-4 -5,-7 -8,-11 -8,3 -24,10 -32,11 -5,0 -36,17 -43,20 -15,7 -88,26 -93,31 -3,3 -26,-8 -33,-2 -10,9 -9,7 -21,9 0,0 -1,32 -5,34 -13,9 -31,14 -42,26 -7,7 -30,13 -35,20 -6,8 -39,28 -48,30 -25,2 -54,-22 -86,0 -13,10 -20,12 -9,-4 -3,0 -6,0 -9,-1 -7,-5 -14,-10 -21,-16 -3,-8 -6,-16 -9,-23 0,0 -12,-3 -9,8 2,7 5,13 12,15 -15,262 -12,523 26,784 11,-7 33,-17 37,2 1,16 6,23 22,23 8,0 6,-5 20,-5 12,0 30,0 40,6 9,3 31,-22 51,-28 36,-11 55,-32 97,-35 22,-1 43,-5 63,-13 -7,12 -14,23 -21,34 17,-1 32,-5 46,-13 8,-5 20,-12 30,-13 5,5 10,11 15,16 35,-2 83,-10 107,-36 7,-10 13,-21 22,-30 13,-13 27,3 27,3 0,0 25,-8 37,-9 9,-2 17,-8 23,-14 18,-8 36,-15 54,-23 8,2 16,3 24,3 39,-5 79,-10 118,-16 18,-4 32,-15 43,-29 4,-1 9,-1 13,-2 18,-10 35,-21 53,-32 0,0 23,-21 31,-5 8,16 5,11 21,14 11,1 23,1 34,-1 9,-15 19,-30 28,-45 6,-8 27,-11 37,-13z"/>
  <path class="fil0" d="M17072 1076c-1,-6 -1,-13 -2,-19 0,0 1,-6 4,0 1,3 0,4 2,5 7,7 7,-5 8,-10 -2,-7 -3,-15 -5,-22 2,4 5,9 7,13 1,7 2,15 3,22 -1,4 -1,8 -2,12 1,3 5,8 7,5 0,-3 1,-6 1,-9 -1,-5 -2,-9 -2,-14 3,4 5,7 8,11 4,-1 8,-1 12,-2 -2,-7 -4,-13 -6,-20 2,0 4,0 6,2 2,3 13,1 15,-2 1,-1 1,-2 2,-3 0,11 6,-5 7,-7 3,-7 26,-72 28,-73 5,-1 13,3 16,6 3,4 20,6 23,2 1,-1 2,-2 3,-3 25,-11 64,-30 88,-37 5,-1 8,-1 12,-4 2,-3 5,-7 7,-10 1,-5 2,-10 3,-15 2,1 4,3 7,4 1,9 2,17 2,26 1,5 4,2 5,-1 0,-3 1,-6 1,-9 1,5 2,9 2,14 2,7 3,23 7,13 3,-11 -3,-22 -7,-33 0,-8 0,-15 0,-23 2,-1 5,-3 7,-4 2,-6 6,-9 12,-11 3,-1 7,-1 10,-2 2,-4 4,-9 6,-13 3,0 7,1 10,1 2,3 9,10 9,10 0,0 0,-17 2,-18 3,0 4,-9 7,-10 3,-1 3,-14 4,-18 2,-5 4,-9 5,-15 1,-10 -4,-42 -6,-54 -1,-5 -2,-9 -2,-14 -21,-120 -48,-255 -61,-374 -1,-13 -1,-27 -2,-40 -4,-43 -10,-90 -16,-133 -3,-26 -5,-50 -10,-76 -5,-24 -10,-76 -10,-76 0,0 -5,-13 -1,-14 4,-1 7,-13 2,-15 -5,-2 -8,7 -8,7 -4,-2 -6,-5 -7,-10 -1,-3 -1,-5 -2,-8 -1,-2 0,-6 -2,-6 -3,1 -2,7 -2,9 1,10 0,11 -4,1 -1,-3 -3,-7 -4,-10 0,1 -3,-12 -3,-3 0,7 0,21 0,21 0,0 -6,-5 -7,1 -1,5 -3,-6 -5,-11 -3,-8 -3,-3 -4,1 -1,5 -3,7 -3,12 -1,5 -4,9 -8,13 -6,3 -6,-5 -9,10 -1,6 -1,20 -6,4 0,-1 -4,-16 -8,-11 -3,1 -6,1 -9,2 -3,1 6,23 7,25 -5,1 -6,1 -9,-5 -2,-4 -5,-2 -7,1 -2,0 -4,-1 -6,-1 0,0 0,10 -2,15 -1,3 -4,9 -4,9 -6,7 -36,48 -41,50 -1,-1 -1,-1 -2,-2 -5,3 -10,5 -15,8 -4,3 -7,7 -11,10 -7,5 -15,8 -22,12 0,-5 0,-9 0,-14 -2,3 -9,16 -13,16 -2,0 -7,1 -8,4 -1,3 -8,-4 -9,4 -1,6 -18,31 -23,32 -22,9 -54,28 -76,39 1,-6 1,-12 2,-17 0,0 -3,3 -4,3 -2,0 -6,-2 -6,-2 -1,1 -2,2 -3,3 0,0 -5,1 -3,4 2,3 6,8 6,8 0,0 -6,6 -9,7 -3,0 -11,13 -14,13 -5,4 8,22 -33,32 -11,2 -40,10 -43,24 -3,1 -6,3 -9,4 -3,-3 -5,-5 -7,-8 -4,-3 -8,-7 -11,-10 -1,5 -2,10 -2,14 0,0 -4,3 -6,3 -2,0 -4,-2 -5,0 -4,7 -17,22 -16,21 -1,-4 -2,-8 -3,-11 1,-1 -10,9 -12,9 -2,0 -15,16 -17,18 -5,6 -35,24 -37,28 -1,3 -11,-8 -14,-2 -4,8 -2,6 -9,9 0,0 1,31 -1,34 -6,10 -13,15 -17,26 -3,7 -13,14 -15,21 -2,6 -15,28 -20,31 -5,3 -27,-19 -38,4 -9,17 -6,7 -4,-3 -1,0 -3,0 -4,0 -3,-5 -7,-9 -10,-14 -2,-8 -3,-15 -5,-23 -5,-2 -4,6 -4,9 1,4 2,11 6,14 4,264 12,518 37,781 0,0 14,-23 16,0 0,6 1,23 10,22 4,0 2,-6 8,-6 6,0 13,-1 17,5 4,3 12,-21 21,-29 12,-7 24,-35 40,-36 11,-1 18,-5 26,-12 -3,11 -5,23 -8,34 8,-1 14,-5 19,-12 2,-3 8,-12 12,-12 2,6 4,11 7,17 20,-1 36,-12 43,-31 3,-10 4,-19 8,-29 5,-12 11,5 11,5 0,0 10,-6 15,-7 4,0 9,-12 9,-12 7,-6 14,-13 21,-19 3,2 6,5 10,5 16,-1 32,-3 48,-4 10,-1 17,-24 17,-24 2,0 3,0 5,-1 7,-8 14,-17 21,-25 0,0 9,-18 12,-1 3,13 1,11 9,16 4,3 9,4 14,4 3,-14 7,-27 10,-41 2,-6 9,-7 15,-8z"/>
  <path class="fil0" d="M5570 3265c-6,-1 -13,-2 -19,-4 -3,-3 -3,-5 1,-6 4,-1 3,1 6,-2 8,-8 0,-11 -6,-17 -8,0 -15,0 -23,0 5,-2 10,-5 15,-7 8,1 15,1 23,2 4,2 7,5 11,7 4,-1 9,-7 7,-10 -3,-2 -5,-4 -8,-6 -5,0 -9,-1 -14,-1 4,-3 9,-6 13,-9 1,-7 2,-13 3,-20 -7,1 -14,2 -21,3 1,-3 2,-7 4,-9 4,-2 6,-22 4,-26 -1,-2 -2,-3 -2,-5 10,5 -3,-13 -4,-14 -6,-8 -58,-71 -57,-75 1,-6 7,-21 13,-24 6,-4 14,-30 11,-36 -1,-2 -1,-4 -2,-6 0,-45 -1,-106 3,-150 1,-7 3,-12 1,-18 -2,-5 -4,-9 -6,-14 -4,-4 -8,-7 -12,-11 2,-2 5,-5 7,-7 8,3 16,5 25,8 5,0 4,-4 1,-6 -3,-2 -5,-3 -8,-5 5,1 9,2 14,3 9,1 23,5 15,-3 -9,-9 -22,-5 -33,-5 -7,-3 -14,-6 -21,-9 0,-4 -1,-7 -1,-11 -5,-5 -6,-13 -5,-20 1,-4 2,-9 3,-13 -3,-4 -6,-9 -9,-13 2,-4 4,-7 6,-11 4,-1 13,-6 13,-6 0,0 -16,-7 -15,-10 1,-3 -7,-8 -6,-13 1,-4 -12,-8 -15,-12 -4,-5 -7,-8 -12,-12 -8,-5 -41,-13 -52,-16 -5,-1 -9,-2 -14,-3 -114,-27 -259,-57 -367,-92 -13,-5 -25,-11 -37,-16 -39,-15 -87,-28 -127,-41 -26,-8 -47,-17 -73,-23 -23,-5 -73,-23 -73,-23 0,0 -15,0 -13,-6 1,-6 -8,-15 -12,-9 -3,5 -1,10 2,15 0,3 -8,6 -13,6 -3,-1 -5,-2 -8,-2 -4,-1 -6,-2 -6,-1 -1,4 4,6 7,7 9,4 9,6 -1,6 -4,0 -8,0 -11,1 1,0 -12,-2 -4,2 6,3 18,11 18,11 0,0 -8,6 -2,11 4,4 -5,1 -12,1 -9,1 -4,3 -1,6 4,4 4,8 9,11 5,4 7,18 7,18 0,11 -7,6 5,19 5,5 17,11 1,11 -4,0 -16,0 -13,7 -1,5 -2,10 -3,15 -1,5 23,1 26,1 -1,6 -1,10 -9,12 -5,2 -4,8 -2,12 -1,3 -3,6 -4,9 0,0 10,6 12,10 2,4 6,12 6,12 5,15 26,86 25,97 -1,1 -2,2 -3,2 0,11 0,22 0,33 1,9 3,18 4,26 1,16 0,33 0,49 -4,-2 -9,-5 -13,-7 3,8 10,26 9,33 -1,4 -2,15 -1,19 2,4 -8,14 0,21 6,6 20,55 19,63 -2,58 1,127 2,185 -5,-4 -11,-7 -16,-11 0,0 1,7 1,11 -1,4 -4,12 -4,12 0,3 1,5 1,8 0,0 -2,12 2,9 4,-3 10,-9 10,-9 0,0 3,16 2,24 -1,10 8,28 7,38 1,8 23,-3 18,87 -1,16 -6,91 8,104 0,7 1,13 1,20 -3,5 -7,9 -10,14 -4,7 -9,15 -13,22 4,3 9,6 13,9 0,0 2,9 1,13 0,4 -3,8 -1,12 6,10 12,29 16,41 -4,2 -8,3 -12,5 0,-2 7,22 6,28 0,4 12,32 14,38 5,12 15,73 20,78 2,2 -10,20 -5,25 8,8 6,7 8,17 0,0 31,3 33,6 8,11 13,25 24,33 6,5 12,23 19,27 6,4 27,28 29,35 3,9 -21,41 2,57 15,11 9,10 -3,6 0,2 0,4 0,6 -5,5 -9,9 -14,14 -8,2 -15,5 -23,7 -2,6 4,6 9,6 5,-1 12,-3 14,-8 262,-5 520,-11 781,-26 0,0 -22,-14 0,-14 6,0 23,1 23,-8 0,-3 -5,-2 -5,-8 0,-6 0,-13 6,-16 4,-4 -20,-13 -27,-24 -7,-14 -33,-29 -32,-49 0,-12 -3,-24 -9,-34 11,5 22,9 33,14 1,-9 -3,-18 -9,-25 -4,-4 -10,-12 -10,-17 6,-2 12,-4 18,-6 1,-24 -3,-49 -23,-64 -10,-6 -18,-10 -27,-17 -11,-9 7,-16 7,-16 0,0 -4,-16 -3,-23 1,-7 -10,-16 -10,-16 -5,-12 -9,-25 -14,-37 3,-4 6,-9 7,-15 3,-26 6,-52 8,-77 0,-13 -9,-25 -19,-34 0,-3 1,-6 1,-9 -6,-14 -12,-28 -18,-41 0,0 -14,-20 3,-21 16,-1 11,1 19,-10 4,-7 7,-14 8,-22 -12,-10 -24,-20 -36,-30 -6,-6 -3,-20 -3,-27z"/>
  <path class="fil0" d="M3759 5067c-5,-4 -10,-8 -15,-13 1,-7 4,-14 10,-18 9,-5 1,4 9,-5 19,-20 16,-25 19,-50 -9,0 -17,-1 -26,-1 9,-6 18,-12 27,-18 7,3 14,6 21,8 0,7 1,14 1,21 7,-2 21,-21 22,-28 0,-6 0,-11 0,-17 -5,-2 -9,-3 -14,-5 9,-8 18,-16 28,-25 11,-20 22,-39 34,-59 -9,3 -18,5 -28,8 0,0 11,-20 19,-27 9,-8 40,-64 44,-76 2,-5 3,-9 5,-14 4,12 14,-26 17,-41 12,-54 33,-180 50,-224 11,-19 36,-57 51,-71 14,-12 61,-88 67,-106 2,-5 4,-11 6,-16 74,-144 147,-293 224,-435 10,-17 20,-34 27,-52 4,-13 9,-26 13,-40 0,-10 1,-20 1,-30 6,-7 12,-13 18,-20 6,7 12,14 18,21 7,1 10,-13 10,-18 -1,-5 -1,-9 -2,-14 4,2 8,5 12,7 15,1 20,11 21,-9 1,-22 -9,-15 -31,-13 -4,-8 -8,-17 -12,-25 5,-10 9,-20 14,-31 1,-16 15,-42 22,-56 7,-12 14,-24 21,-36 2,-11 4,-23 6,-34 7,-10 14,-20 21,-30 8,-4 23,-16 23,-16 0,0 -10,-17 -5,-25 5,-9 2,-21 8,-32 6,-10 -4,-18 -2,-30 1,-9 2,-19 0,-28 -3,-8 -33,-31 -42,-35 -4,-2 -8,-5 -12,-7 -80,-48 -258,-148 -321,-202 -11,-12 -17,-22 -26,-34 -24,-25 -76,-64 -105,-86 -23,-18 -33,-33 -61,-47 -22,-12 -44,-29 -61,-47 0,0 -16,-1 -10,-11 5,-9 3,-28 -6,-17 -6,8 -9,16 -9,26 0,0 -11,13 -18,9 -4,-2 -3,-3 -7,-4 -5,-1 -4,-5 -6,-2 -3,6 -3,9 2,14 7,9 5,11 -6,11 -4,0 -9,0 -13,0 0,0 -11,-4 -6,4 4,7 11,22 11,22 0,0 -14,11 -12,21 1,8 -3,1 -14,2 -11,2 -7,5 -7,13 0,8 -2,15 0,23 2,10 -10,39 -9,38 -10,21 -14,14 -14,41 0,11 8,25 -10,24 -11,0 -20,4 -22,16 -6,11 -13,22 -19,33 -6,11 24,4 28,3 -6,10 -11,23 -22,27 -8,3 -15,27 -15,27 -5,7 -10,13 -14,20 2,8 3,16 2,25 -2,9 -6,28 -6,28 -19,56 -65,196 -90,241 -2,2 -4,4 -6,6 -14,28 -28,56 -42,84 -10,23 -20,46 -30,69 -20,44 -43,87 -65,130 -2,-6 -4,-13 -5,-19 -10,28 -21,65 -35,90 -8,13 -22,36 -26,50 -4,16 -27,35 -29,56 -1,20 -54,150 -66,172 -86,164 -169,332 -252,498 -1,-10 -1,-21 -2,-31 0,0 -8,20 -14,29 -6,11 -21,32 -21,32 -3,7 -6,14 -9,21 2,-4 -17,30 -10,24 8,-7 23,-23 23,-23 0,0 -18,43 -29,62 -17,31 -27,70 -44,100 -34,76 -32,108 -96,225 -17,30 -121,220 -123,254 -8,16 -16,31 -23,47 -9,10 -18,20 -27,30 -13,16 -26,31 -39,46 1,8 2,16 3,24 0,0 -9,20 -14,30 -4,8 -13,17 -15,26 -7,28 -19,62 -29,91 -6,2 -11,4 -17,6 -7,18 -15,42 -23,58 -9,19 -19,57 -25,79 -7,25 -52,129 -52,143 0,5 -25,27 -25,37 1,16 -1,14 -6,28 0,0 26,17 26,22 0,17 -6,38 -1,55 2,9 -3,32 1,40 3,6 9,42 8,48 -1,10 -35,22 -20,42 12,15 3,8 -4,1 -1,1 -1,2 -2,3 -6,0 -12,1 -17,2 -8,-1 -17,-2 -25,1 -3,6 -16,51 -3,34 10,-14 16,-19 26,-30 239,100 467,232 699,349 -7,-7 -11,-16 5,-9 5,3 20,11 24,3 2,-3 -4,-5 0,-10 4,-6 7,-14 15,-16 6,-3 -10,-26 -8,-43 4,-34 -7,-53 12,-90 11,-20 19,-42 24,-64 6,13 11,25 17,38 9,-16 15,-34 17,-52 1,-10 3,-29 8,-38 8,-2 16,-4 23,-7 23,-40 52,-101 51,-147 -2,-18 -7,-29 -6,-47 1,-16 11,-28 26,-34 0,0 16,-39 26,-57 7,-13 9,-27 10,-42 11,-32 23,-63 34,-95 0,0 20,-23 26,-35 38,-67 77,-134 115,-201 16,-29 25,-62 28,-95 5,-8 9,-16 13,-24 14,-39 27,-78 41,-117 4,-18 14,-53 34,-59 23,-1 19,-6 35,-26 15,-18 42,-62 42,-62 2,-30 4,-59 6,-89 2,-19 28,-61 38,-79z"/>
  <path class="fil0" d="M9377 3817c1,-7 1,-13 2,-20 4,-3 8,-4 12,0 5,5 -2,3 5,5 17,7 19,0 32,-9 -2,-8 -5,-15 -7,-23 6,5 12,9 18,14 1,8 1,15 2,23 -4,4 -7,8 -11,12 3,5 17,8 21,5 3,-3 6,-6 9,-9 -1,-5 -1,-9 -2,-14 7,4 14,8 21,11 14,0 27,0 41,0 -4,-7 -8,-13 -12,-20 0,0 15,0 19,3 6,3 45,2 52,0 3,-1 6,-2 9,-3 -5,10 18,-1 27,-6 17,-9 122,-69 131,-69 12,0 43,3 53,8 10,5 66,8 77,5 4,-1 7,-2 11,-3 105,-9 217,-20 321,-25 14,0 28,0 42,-3 10,-3 20,-6 30,-9 6,-5 13,-9 19,-14 6,2 13,4 19,5 -2,9 -5,17 -7,26 2,6 12,2 16,0 3,-3 6,-6 9,-9 0,5 0,9 0,14 4,12 0,23 14,14 15,-10 6,-16 -4,-34 4,-8 8,-15 12,-23 9,-1 17,-2 26,-3 11,-7 35,-8 48,-9 12,0 23,0 35,0 9,-4 19,-8 28,-12 11,1 21,2 32,3 6,5 23,12 23,12 0,0 9,-17 17,-17 9,0 18,-9 30,-9 12,0 14,-12 25,-17 8,-4 18,-8 25,-14 6,-6 10,-44 10,-54 0,-5 0,-9 0,-14 1,-91 0,-301 15,-379 6,-16 11,-26 18,-40 10,-32 20,-99 25,-133 5,-30 14,-44 12,-76 0,-26 4,-52 12,-76 0,0 -9,-14 6,-14 11,0 32,-11 14,-14 -11,-1 -23,0 -32,6 0,0 -19,-3 -19,-11 0,-5 1,-4 0,-9 -2,-6 3,-6 -2,-6 -7,0 -10,2 -12,9 -4,11 -8,10 -14,0 -2,-4 -5,-7 -7,-11 0,0 -2,-12 -7,-3 -4,7 -14,20 -14,20 0,0 -17,-6 -25,0 -7,5 -2,-2 -9,-12 -7,-8 -8,-4 -14,0 -7,4 -14,5 -19,12 -7,7 -36,11 -36,11 -22,2 -17,-5 -39,9 -9,6 -16,20 -23,3 -4,-9 -11,-15 -21,-12 -11,0 -21,0 -32,0 -11,0 7,22 9,26 -10,0 -21,2 -28,-6 -5,-5 -25,0 -25,0 -7,-1 -13,-2 -20,-2 0,0 -10,12 -16,14 -7,3 -21,9 -21,9 13,-4 -177,47 -184,43 -2,-1 -4,-2 -6,-2 -21,2 -42,4 -63,6 -16,3 -33,6 -49,9 -31,4 -62,6 -93,9 3,-5 6,-9 9,-14 -17,5 -44,14 -60,15 -9,0 -28,0 -35,3 -8,4 -28,-6 -39,3 -9,8 -97,29 -111,29 -110,8 -224,21 -334,32 5,-6 10,-12 16,-17 0,0 -13,3 -19,3 -8,0 -23,-2 -23,-2 -5,1 -9,2 -14,3 2,0 -22,0 -16,3 6,3 19,8 19,8 0,0 -28,6 -42,6 -21,0 -46,12 -67,12 -42,7 -34,25 -153,29 -24,1 -168,6 -188,21 -12,1 -25,2 -37,3 -9,-3 -19,-6 -28,-8 -15,-4 -29,-7 -44,-11 -5,5 -9,9 -14,14 0,0 -16,3 -25,3 -7,0 -16,-2 -23,0 -22,8 -51,15 -74,21 -4,-4 -7,-8 -11,-12 -15,3 -38,8 -52,9 -18,2 -53,13 -72,18 -44,9 -114,15 -153,27 -5,3 -42,-9 -53,-3 -17,9 -17,7 -35,9 0,8 -2,29 -9,34 -21,9 -50,14 -69,26 -12,8 -47,12 -56,20 -10,8 -62,29 -75,31 -44,3 -86,-20 -136,3 -12,7 -34,18 -14,-3 -5,0 -10,0 -14,0 -12,-5 -23,-9 -35,-14 -6,-8 -12,-15 -18,-23 0,0 -19,-2 -14,9 4,8 12,13 21,14 8,263 39,526 103,781 12,-6 40,-19 46,0 3,18 12,23 28,23 10,0 9,-5 25,-6 14,0 37,-1 50,5 11,3 41,-23 64,-28 46,-11 71,-32 124,-35 26,-1 56,-4 81,-11 -9,11 -19,23 -28,34 21,0 41,-4 60,-11 11,-5 26,-11 39,-12 6,6 12,11 18,17 42,0 106,-4 141,-29 11,-10 19,-20 32,-28 13,-7 25,-4 35,5 0,0 33,-6 49,-6 11,-1 23,-6 32,-12 25,-6 49,-12 74,-18 0,0 22,5 32,5 53,0 106,-1 159,-1 23,-1 45,-10 63,-23 6,0 12,0 18,0 26,-8 52,-16 77,-23 0,0 35,-17 42,0 8,18 6,12 25,17 15,3 30,5 46,5 16,-13 32,-26 49,-40 10,-7 41,-6 53,-7z"/>
  <path class="fil0" d="M2339 9212c-1,-6 -2,-13 -3,-19 2,-3 4,-4 7,-1 3,4 0,3 4,5 11,5 11,-3 16,-12 -3,-7 -5,-14 -8,-21 4,4 8,8 12,12 2,7 4,15 5,22 -1,4 -2,8 -4,13 2,4 11,6 13,3 1,-3 2,-6 3,-9 -1,-5 -2,-9 -4,-14 5,3 9,6 14,9 7,-1 15,-3 22,-4 -4,-6 -7,-12 -11,-19 4,-1 8,-1 11,1 4,3 25,-2 28,-5 1,-1 3,-3 4,-4 -1,11 13,-7 13,-8 7,-9 54,-79 58,-80 7,-1 24,-1 29,3 6,4 36,2 41,-2 2,-1 3,-3 5,-4 48,-16 107,-39 154,-51 7,-1 13,-2 19,-6 4,-4 8,-7 12,-11 2,-5 4,-10 6,-15 3,1 6,3 10,4 0,9 1,17 1,26 2,5 5,2 7,-1 1,-3 2,-6 2,-9 1,5 2,9 2,14 3,9 3,23 9,13 5,-12 -2,-21 -7,-33 1,-8 1,-15 2,-23 4,-2 7,-3 11,-5 3,-7 12,-10 19,-12 5,-1 10,-2 15,-2 3,-4 6,-9 10,-13 4,0 9,1 13,1 3,3 11,10 11,10 0,0 1,-17 4,-18 4,-1 6,-10 10,-10 4,-1 4,-14 7,-18 3,-5 6,-9 7,-15 2,-9 -3,-44 -4,-54 -1,-5 -1,-9 -2,-14 -17,-116 -43,-261 -52,-375 0,-14 1,-27 1,-40 -1,-42 -7,-91 -11,-133 -2,-26 -2,-50 -7,-76 -4,-24 -7,-76 -7,-76 0,0 -6,-13 0,-14 6,-1 10,-13 3,-15 -7,-2 -12,7 -12,7 -5,-1 -8,-5 -9,-10 -1,-3 0,-5 -1,-8 -1,-4 0,-6 -2,-6 -4,1 -4,6 -4,9 0,10 -2,11 -6,1 -2,-3 -3,-7 -5,-10 0,1 -2,-12 -3,-3 -1,7 -3,21 -3,21 0,0 -8,-5 -10,2 -2,5 -2,-4 -6,-11 -4,-8 -4,-3 -6,1 -3,5 -5,7 -6,13 -1,5 -13,13 -13,13 -10,4 -8,-4 -16,11 -3,6 -4,20 -10,5 -1,-3 -6,-15 -11,-10 -5,1 -10,2 -14,2 -5,1 7,22 8,25 -6,1 -10,3 -14,-4 -3,-4 -8,-1 -11,2 -3,0 -6,-1 -10,-1 0,0 -2,11 -5,15 -3,3 -8,10 -8,10 -13,10 -71,55 -82,57 -1,-1 -2,-1 -3,-2 -10,4 -21,7 -31,11 -8,4 -16,9 -24,13 -15,7 -31,12 -47,17 1,-5 1,-10 2,-15 -7,5 -21,18 -29,20 -4,1 -15,3 -18,6 -3,4 -16,-3 -20,7 -3,8 -47,37 -55,39 -58,18 -123,43 -181,64 2,-6 4,-12 6,-19 0,0 -7,4 -10,5 -4,1 -13,0 -13,0 -2,1 -5,3 -7,4 0,0 -12,2 -8,5 4,3 12,6 12,6 0,0 -15,9 -23,10 -10,2 -25,17 -35,19 -8,4 9,22 -81,45 -15,4 -93,23 -101,40 -7,2 -13,5 -20,7 -6,-2 -11,-3 -17,-5 -9,-2 -17,-4 -26,-6 -2,5 -3,10 -5,15 0,0 -9,4 -13,5 -4,1 -9,-1 -12,3 -8,8 -25,20 -35,28 -3,-3 -5,-7 -8,-10 1,-1 -19,13 -26,14 -4,1 -29,21 -34,25 -11,8 -68,36 -71,41 -2,3 -22,-4 -26,3 -6,10 -5,7 -15,12 0,0 5,31 3,34 -9,11 -21,19 -26,32 -3,8 -19,18 -21,25 -2,7 -20,34 -27,37 -8,5 -45,-10 -56,16 -8,17 -8,11 -6,-2 -2,0 -4,1 -6,1 -6,-4 -11,-7 -17,-11 -4,-7 -8,-14 -12,-20 -6,0 -5,6 -3,10 2,5 6,11 11,12 64,256 130,502 213,752 0,0 11,-26 18,-4 2,8 6,22 16,20 4,-1 2,-6 9,-8 7,-2 15,-4 21,1 6,2 10,-24 21,-33 15,-11 25,-41 47,-45 12,-3 26,-10 35,-19 -2,12 -4,24 -6,36 10,-2 19,-9 26,-17 4,-5 10,-13 16,-15 4,5 8,10 12,15 25,-5 53,-18 64,-42 4,-11 5,-21 10,-31 7,-13 19,2 19,2 0,0 16,-9 24,-11 7,-2 11,-9 14,-15 12,-8 24,-17 36,-25 6,2 12,3 18,2 28,-6 57,-12 85,-17 14,-4 24,-17 30,-29 3,-1 6,-1 10,-2 13,-10 25,-20 38,-31 0,0 16,-20 23,-5 7,15 3,11 17,14 9,2 17,2 26,0 6,-15 13,-29 19,-44 4,-7 20,-10 28,-12z"/>
  <path class="fil0" d="M13449 7579c1,-7 1,-13 2,-20 3,-3 6,-3 9,0 3,5 -1,3 4,6 12,7 14,0 23,-8 -2,-8 -3,-15 -5,-23 4,5 8,9 12,14 0,8 1,15 1,23 -3,4 -5,8 -8,12 2,4 12,8 15,6 2,-3 4,-6 6,-9 0,-5 -1,-9 -1,-14 5,4 10,8 15,12 10,0 19,0 29,0 -3,-7 -6,-13 -9,-20 0,0 11,1 14,3 4,3 32,2 37,0 2,-1 4,-2 6,-3 -4,11 18,-6 19,-6 11,-8 85,-70 89,-70 8,0 29,3 36,7 7,5 44,7 51,3 2,-1 5,-2 7,-3 67,-11 132,-26 197,-37 9,-1 16,-1 24,-5 5,-3 11,-7 16,-11 3,-5 6,-10 9,-15 4,1 8,3 11,4 0,9 0,17 -1,26 2,5 7,2 9,-1 1,-3 2,-6 4,-9 1,5 1,9 2,14 4,11 3,22 10,13 7,-12 -1,-20 -7,-33 1,-8 2,-16 3,-23 5,-2 9,-3 14,-5 5,-8 15,-11 23,-13 6,-1 12,-2 18,-3 4,-5 8,-9 12,-14 6,0 11,0 17,0 3,3 14,9 14,9 0,0 0,-18 5,-19 5,-1 7,-11 13,-12 6,-1 4,-14 7,-20 3,-6 7,-10 8,-17 1,-8 -9,-44 -12,-53 -1,-4 -3,-9 -4,-13 -38,-120 -76,-241 -114,-361 -4,-13 -8,-25 -12,-38 -15,-42 -31,-83 -48,-124 -10,-24 -21,-46 -31,-70 -9,-23 -20,-48 -33,-69 0,0 -2,-15 -8,-12 -6,2 -19,-4 -12,-10 5,-4 11,-4 16,-1 3,-1 4,-9 3,-13 -1,-3 -2,-5 -3,-8 -1,-3 -3,-5 -1,-6 4,-1 6,4 7,7 4,9 6,9 4,-1 -1,-4 -1,-7 -2,-11 0,1 -3,-12 1,-3 3,6 9,18 9,18 0,0 1,-7 4,-1 3,5 -2,-10 -2,-11 -1,-8 0,-4 2,0 2,4 3,7 4,11 1,3 3,7 3,10 0,1 0,3 0,9 1,6 2,19 -2,3 -1,-4 -4,-15 -5,-11 -2,0 -3,1 -5,1 -2,0 6,23 6,25 -4,1 -5,-1 -6,-5 -2,-5 -5,1 -5,1 -2,-1 -3,-1 -5,-2 0,0 0,10 -2,15 -1,3 -4,9 -4,9 -10,11 -48,48 -60,49 -1,-1 -2,-1 -3,-2 -9,3 -18,5 -27,8 -7,4 -15,7 -22,10 -15,5 -31,8 -46,11 1,-5 3,-10 4,-14 -7,4 -23,15 -31,16 -4,0 -16,1 -19,3 -4,3 -16,-5 -22,4 -5,8 -54,30 -63,30 -69,9 -139,21 -208,30 3,-6 7,-11 10,-17 0,0 -8,2 -12,2 -5,0 -15,-3 -15,-3 -3,1 -6,2 -9,2 0,0 -14,0 -10,3 4,3 12,9 12,9 0,0 -19,4 -19,4 0,0 -7,1 -8,1 -12,0 -31,11 -43,11 -9,2 1,24 -98,26 -17,0 -105,0 -118,15 -8,1 -15,1 -23,2 -6,-3 -11,-6 -16,-9 -8,-4 -17,-8 -25,-12 -3,5 -6,9 -9,14 0,0 -10,2 -14,2 -4,0 -9,-3 -13,-1 -10,6 -31,13 -43,17 -2,-4 -3,-8 -5,-12 2,0 -22,7 -29,6 -4,0 -33,12 -39,14 -12,5 -72,14 -76,19 -2,2 -18,-10 -23,-6 -8,8 -6,5 -16,7 0,0 -5,31 -8,33 -10,8 -22,11 -31,22 -5,6 -20,11 -24,17 -3,5 -24,25 -30,26 -7,2 -24,-24 -37,-4 -10,16 -6,4 -2,-4 -1,0 -2,0 -3,-1 -1,-5 -2,-10 -3,-15 1,-8 2,-15 3,-23 -2,-2 -4,8 -4,8 -1,3 -2,11 -1,14 -63,264 -113,497 -131,771 0,0 26,-18 24,5 -1,11 -2,23 11,25 5,1 5,-5 14,-3 8,1 20,2 25,10 6,4 22,-18 38,-23 22,-5 44,-29 71,-26 16,1 32,0 47,-6 -6,11 -13,21 -19,32 12,1 25,-1 35,-8 6,-4 16,-9 24,-9 3,6 6,12 9,18 30,2 66,1 88,-21 7,-9 13,-19 22,-27 12,-11 22,7 22,7 0,0 22,-4 32,-3 8,0 16,-5 21,-10 17,-5 33,-10 50,-14 6,3 14,6 21,7 36,2 72,3 108,5 17,-1 33,-10 45,-21 4,0 8,0 12,0 18,-7 37,-14 55,-21 0,0 25,-16 30,1 5,17 2,12 17,18 11,4 21,6 32,6 7,-8 16,-18 23,-25 4,-4 8,-9 12,-13 7,-6 29,-6 38,-6z"/>
 </g>
</svg>
